<svg xmlns="http://www.w3.org/2000/svg" width="170" height="36" viewBox="0 0 170 36" fill="none"><path d="M9.07129 14.16C10.1316 9.83999 12.1344 6.47999 15.433 3.83999C20.3811 -1.35414e-05 25.8003 -0.840014 31.8086 0.839986C33.1046 1.19999 33.9292 2.03999 34.2827 3.35999C34.8717 5.15999 35.2251 7.07999 35.2251 8.99999C35.2251 10.44 34.7539 10.68 33.5758 9.83999C30.7484 8.03999 27.6853 6.83999 24.151 6.83999C18.6139 6.83999 14.0193 8.87999 10.485 13.32C10.1316 13.68 9.89596 14.16 9.07129 14.16Z" fill="#292940"></path><path d="M14.0194 26.4C11.7811 26.28 10.1317 25.32 8.48237 24.36C1.29595 20.04 -1.76711 10.8 1.06033 2.88002C1.29595 2.28002 1.41376 1.68002 2.00281 1.44002C4.35902 0.360016 6.83303 -0.119984 9.30704 0.120016C10.603 0.240016 10.0139 1.08002 9.66047 1.68002C8.36456 3.84002 7.30427 6.12002 6.95084 8.64002C5.89055 15.12 7.89332 20.4 12.4879 24.84C12.9592 25.2 13.666 25.56 14.0194 26.4Z" fill="#292940"></path><path d="M25.9182 21.96C25.3292 25.56 23.562 28.56 21.088 30.84C16.0222 35.52 10.1317 37.08 3.53432 35.04C2.1206 34.56 1.29593 33.84 0.942502 32.4C0.471262 30.6 0.117831 28.92 0.117831 27.12C0.117831 26.52 -0.117789 25.8 0.471262 25.56C1.06031 25.32 1.41374 25.92 1.88498 26.16C6.83301 29.4 12.0167 29.88 17.5537 27.96C20.3812 27 22.5018 25.08 24.5045 22.92C24.858 22.56 25.0936 21.84 25.9182 21.96Z" fill="#292940"></path><path d="M21.3237 9.35999C23.9156 9.83999 26.1539 10.92 28.2745 12.48C34.165 17.04 36.7569 25.2 34.4007 32.16C33.9294 33.6 33.1047 34.56 31.5732 35.04C30.0417 35.4 28.5101 35.64 26.8608 35.88C26.2718 36 25.4471 36.12 25.0937 35.52C24.7402 34.92 25.3293 34.44 25.6827 33.96C28.9814 28.68 29.5704 23.16 27.2142 17.4C26.1539 14.76 24.3868 12.6 22.2662 10.68C21.9128 10.32 21.4415 10.2 21.3237 9.35999Z" fill="#292940"></path><path d="M65.3845 18C65.3845 19.44 65.1489 20.76 64.7955 21.84C64.3242 22.92 63.7352 23.88 63.0283 24.6C62.3215 25.32 61.379 25.92 60.4365 26.28C59.3762 26.64 58.3159 26.88 57.1378 26.88C55.9597 26.88 54.8994 26.64 53.9569 26.28C52.8967 25.92 52.072 25.32 51.3651 24.6C50.6583 23.88 50.0692 22.92 49.598 21.84C49.1267 20.76 48.8911 19.44 48.8911 18C48.8911 16.56 49.1267 15.24 49.598 14.16C50.0692 13.08 50.6583 12.12 51.3651 11.4C52.072 10.68 53.0145 10.08 53.9569 9.72C55.0172 9.36 55.9597 9.12 57.1378 9.12C58.3159 9.12 59.3762 9.36 60.3187 9.72C61.379 10.08 62.2037 10.68 62.9105 11.4C63.6174 12.12 64.2064 13.08 64.6777 14.16C65.1489 15.24 65.3845 16.56 65.3845 18ZM52.5432 18C52.5432 18.84 52.661 19.56 52.8967 20.28C53.1323 21 53.3679 21.48 53.7213 21.96C54.0748 22.44 54.546 22.8 55.135 23.04C55.7241 23.28 56.3132 23.4 57.02 23.4C57.7269 23.4 58.3159 23.28 58.905 23.04C59.494 22.8 59.9653 22.44 60.3187 21.96C60.6721 21.48 61.0256 20.88 61.1434 20.28C61.379 19.56 61.4968 18.84 61.4968 18C61.4968 17.16 61.379 16.44 61.1434 15.72C60.9077 15 60.6721 14.52 60.3187 13.92C59.9653 13.44 59.494 13.08 58.905 12.84C58.3159 12.6 57.7269 12.48 57.02 12.48C56.3132 12.48 55.7241 12.6 55.135 12.84C54.546 13.08 54.0748 13.44 53.7213 13.92C53.3679 14.4 53.0145 15 52.8967 15.72C52.661 16.44 52.5432 17.16 52.5432 18Z" fill="#292940"></path><path d="M68.2119 14.0399C68.801 13.9199 69.6256 13.6799 70.5681 13.5599C71.5106 13.4399 72.5709 13.3199 73.6312 13.3199C74.6915 13.3199 75.634 13.4399 76.3408 13.7999C77.0477 14.0399 77.6367 14.5199 77.9901 14.9999C78.4614 15.4799 78.697 16.1999 78.9326 16.9199C79.0504 17.6399 79.1683 18.4799 79.1683 19.3199V26.6399H75.6339V19.7999C75.6339 18.5999 75.5161 17.7599 75.1627 17.2799C74.8093 16.7999 74.338 16.5599 73.3956 16.5599C73.1599 16.5599 72.9243 16.5599 72.5709 16.5599C72.3353 16.5599 71.9818 16.5599 71.7462 16.6799V26.6399H68.2119V14.0399Z" fill="#292940"></path><path d="M81.7603 20.16C81.7603 18.96 81.8781 18 82.2315 17.16C82.5849 16.32 83.0562 15.6 83.6452 15C84.2343 14.4 84.8233 14.04 85.5302 13.68C86.237 13.44 87.0617 13.2 87.7686 13.2C89.5357 13.2 90.9494 13.8 92.0097 14.88C93.07 15.96 93.5413 17.64 93.5413 19.8C93.5413 20.04 93.5413 20.28 93.5413 20.52C93.5413 20.76 93.5413 21 93.5413 21.24H85.4124C85.5302 21.96 85.8836 22.56 86.4727 23.04C87.0617 23.52 87.8864 23.76 88.9467 23.76C89.6535 23.76 90.2426 23.64 90.8316 23.52C91.4207 23.4 92.0097 23.28 92.3632 23.04L92.8344 26.04C92.5988 26.16 92.3632 26.28 92.0097 26.28C91.6563 26.4 91.3029 26.52 90.9494 26.52C90.596 26.64 90.1248 26.64 89.6535 26.76C89.1823 26.76 88.711 26.88 88.3576 26.88C87.1795 26.88 86.237 26.76 85.4124 26.4C84.5877 26.04 83.8808 25.56 83.2918 24.96C82.7027 24.36 82.3493 23.64 82.1137 22.8C81.8781 21.96 81.7603 21.12 81.7603 20.16ZM90.2426 18.72C90.2426 18.36 90.1248 18.12 90.1248 17.76C90.007 17.52 89.8891 17.16 89.7713 16.92C89.5357 16.68 89.3001 16.56 89.0645 16.32C88.8289 16.2 88.4754 16.08 88.0042 16.08C87.6508 16.08 87.2973 16.2 86.9439 16.32C86.7083 16.44 86.4727 16.68 86.237 16.92C86.0014 17.16 85.8836 17.4 85.7658 17.76C85.648 18.12 85.5302 18.36 85.5302 18.72H90.2426Z" fill="#292940"></path><path d="M96.7222 26.52V9.47998H107.914V12.72H100.492V16.32H107.089V19.56H100.492V26.52H96.7222Z" fill="#292940"></path><path d="M120.637 26.0399C120.048 26.1599 119.224 26.3999 118.281 26.5199C117.339 26.6399 116.279 26.7599 115.218 26.7599C114.158 26.7599 113.215 26.6399 112.509 26.2799C111.802 26.0399 111.213 25.5599 110.859 25.0799C110.388 24.5999 110.152 23.8799 109.917 23.1599C109.681 22.4399 109.681 21.5999 109.681 20.7599V13.5599H113.215V20.3999C113.215 21.5999 113.333 22.4399 113.687 22.9199C114.04 23.3999 114.511 23.7599 115.454 23.7599C115.689 23.7599 116.043 23.7599 116.279 23.7599C116.514 23.7599 116.868 23.7599 117.103 23.6399V13.6799H120.637V26.0399Z" fill="#292940"></path><path d="M123.818 10.44L127.352 9.83997V13.68H131.711V16.68H127.352V21.24C127.352 21.96 127.47 22.68 127.706 23.04C127.941 23.52 128.531 23.76 129.355 23.76C129.709 23.76 130.18 23.76 130.533 23.64C130.887 23.52 131.358 23.52 131.594 23.28L132.065 26.16C131.594 26.28 131.122 26.52 130.651 26.64C130.18 26.76 129.473 26.88 128.648 26.88C127.706 26.88 126.881 26.76 126.174 26.52C125.585 26.28 124.996 25.92 124.643 25.44C124.289 24.96 123.936 24.36 123.818 23.64C123.7 22.92 123.583 22.2 123.583 21.36V10.44H123.818Z" fill="#292940"></path><path d="M145.495 26.0399C144.906 26.1599 144.082 26.3999 143.139 26.5199C142.197 26.6399 141.136 26.7599 140.076 26.7599C139.016 26.7599 138.073 26.6399 137.367 26.2799C136.66 26.0399 136.071 25.5599 135.717 25.0799C135.246 24.5999 135.01 23.8799 134.775 23.1599C134.539 22.4399 134.539 21.5999 134.539 20.7599V13.5599H138.073V20.3999C138.073 21.5999 138.191 22.4399 138.545 22.9199C138.898 23.3999 139.369 23.7599 140.312 23.7599C140.547 23.7599 140.901 23.7599 141.136 23.7599C141.372 23.7599 141.725 23.7599 141.961 23.6399V13.6799H145.495V26.0399Z" fill="#292940"></path><path d="M156.452 16.7999C156.098 16.6799 155.745 16.6799 155.274 16.5599C154.802 16.4399 154.331 16.4399 153.86 16.4399C153.624 16.4399 153.389 16.4399 153.035 16.5599C152.682 16.5599 152.446 16.6799 152.328 16.6799V26.5199H148.794V14.2799C149.383 14.0399 150.208 13.7999 151.032 13.6799C151.857 13.4399 152.917 13.3199 153.978 13.3199C154.213 13.3199 154.449 13.3199 154.684 13.3199C154.92 13.3199 155.273 13.3199 155.509 13.4399C155.745 13.4399 156.098 13.5599 156.334 13.5599C156.569 13.5599 156.805 13.6799 157.041 13.7999L156.452 16.7999Z" fill="#292940"></path><path d="M158.101 20.16C158.101 18.96 158.219 18 158.572 17.16C158.926 16.32 159.397 15.6 159.986 15C160.575 14.4 161.164 14.04 161.871 13.68C162.578 13.44 163.403 13.2 164.109 13.2C165.877 13.2 167.29 13.8 168.351 14.88C169.411 15.96 169.882 17.64 169.882 19.8C169.882 20.04 169.882 20.28 169.882 20.52C169.882 20.76 169.882 21 169.882 21.24H161.753C161.871 21.96 162.224 22.56 162.813 23.04C163.403 23.52 164.227 23.76 165.287 23.76C165.994 23.76 166.583 23.64 167.172 23.52C167.761 23.4 168.351 23.28 168.704 23.04L169.175 26.04C168.94 26.16 168.704 26.28 168.351 26.28C167.997 26.4 167.644 26.52 167.29 26.52C166.937 26.64 166.466 26.64 165.994 26.76C165.523 26.76 165.052 26.88 164.698 26.88C163.52 26.88 162.578 26.76 161.753 26.4C160.929 26.04 160.222 25.56 159.633 24.96C159.044 24.36 158.69 23.64 158.455 22.8C158.219 21.96 158.101 21.12 158.101 20.16ZM166.583 18.72C166.583 18.36 166.466 18.12 166.466 17.76C166.348 17.52 166.23 17.16 166.112 16.92C165.877 16.68 165.641 16.56 165.405 16.32C165.17 16.2 164.816 16.08 164.345 16.08C163.992 16.08 163.638 16.2 163.285 16.32C163.049 16.44 162.813 16.68 162.578 16.92C162.342 17.16 162.224 17.4 162.107 17.76C161.989 18.12 161.871 18.36 161.871 18.72H166.583Z" fill="#292940"></path></svg>