<svg xmlns="http://www.w3.org/2000/svg" width="157" height="36" viewBox="0 0 157 36" fill="none"><g clip-path="url(#clip0_417_107)"><path d="M12.5936 2.16C13.1933 13.2 18.1108 21.36 28.0657 26.52C28.6654 26.88 29.9847 26.76 29.505 27.96C29.0252 29.4 27.2261 30.36 26.1467 29.88C24.1077 28.92 22.3086 27.72 20.5096 26.4C19.7899 25.8 19.3102 25.8 18.5905 26.4C17.8709 27 17.1513 27.6 16.3117 27.96C15.4721 28.44 15.5921 28.8 16.3117 29.4C17.9908 30.72 19.67 32.04 21.589 33.12C23.0283 33.96 22.9083 33.96 21.589 35.04C20.1497 36.24 18.9503 36.24 17.3911 35.04C6.23682 27 0.119939 16.08 0 2.04C0 0.6 0.359817 0 1.91902 0C3.35829 0 3.83804 0.6 3.83804 2.04C3.83804 10.2 6.35676 17.64 11.3942 24.12C12.7135 25.8 12.7135 25.8 14.5126 24.6C14.7525 24.48 14.9924 24.24 15.2322 24.12C16.9114 22.92 16.9114 22.92 15.5921 21.24C11.1543 15.72 8.87548 9.36 8.75554 2.28C8.75554 0.24 8.99542 0.12 10.7945 0C12.3537 0 12.9534 0.6 12.5936 2.16Z" fill="#292940"></path><path d="M26.6267 0.23999C30.2248 0.23999 33.7031 0.23999 37.3012 0.23999C38.7405 0.23999 38.9804 0.83999 39.1003 2.03999C39.1003 3.35999 38.6205 3.83999 37.3012 3.83999C35.5021 3.71999 33.7031 3.83999 32.0239 3.83999C30.7046 3.83999 30.2248 4.31999 30.1049 5.63999C29.5052 10.92 27.7061 15.72 24.5877 19.92C24.1079 20.52 23.8681 21.72 22.6687 20.88C21.1095 19.8 20.8696 18.96 21.7092 17.76C24.1079 14.28 25.6671 10.32 26.3868 6.11999C26.7466 4.07999 26.5067 3.83999 24.3478 3.83999C21.5892 3.83999 18.7107 3.83999 15.9521 3.83999C14.5128 3.83999 14.2729 3.11999 14.2729 1.91999C14.2729 0.71999 14.7527 0.23999 15.9521 0.23999C19.3104 0.35999 23.0285 0.23999 26.6267 0.23999Z" fill="#292940"></path><path d="M37.0613 5.52001C38.5006 5.28001 38.8604 5.88001 38.7404 7.20001C37.7809 13.8 35.5021 19.8 31.6641 25.2C30.9444 26.16 29.865 26.16 28.4257 25.08C27.3463 24.36 28.1858 23.76 28.5456 23.16C31.9039 18.36 34.1828 13.08 34.9024 7.32001C35.1423 6.00001 35.622 5.16001 37.0613 5.52001Z" fill="#292940"></path><path d="M55.1718 28.08H51.8135V8.28003H55.5316L62.2482 23.64L68.9647 8.28003H72.6828V28.08H69.3246V14.76L63.5675 28.08H61.0488L55.1718 14.76V28.08Z" fill="#292940"></path><path d="M78.56 11.88C77.9603 11.88 77.4805 11.64 77.1207 11.28C76.7609 10.8 76.521 10.32 76.521 9.84005C76.521 9.24005 76.7609 8.76005 77.1207 8.40005C77.4805 8.04005 77.9603 7.80005 78.56 7.80005C79.1597 7.80005 79.6394 8.04005 79.9992 8.40005C80.359 8.76005 80.5989 9.24005 80.5989 9.84005C80.5989 10.44 80.359 10.8 79.9992 11.28C79.6394 11.64 79.1597 11.88 78.56 11.88ZM77.0007 13.92H80.2391V28.08H77.0007V13.92Z" fill="#292940"></path><path d="M85.2763 13.92V10.08H88.5146V14.04H91.8729V16.8H88.5146V23.04C88.5146 23.88 88.6345 24.48 88.9944 24.84C89.3542 25.2 89.714 25.32 90.1938 25.32C90.6735 25.32 91.2732 25.32 91.753 25.2V27.96C90.9134 28.08 90.1938 28.2 89.3542 28.08C88.5146 27.96 87.9149 27.84 87.1953 27.48C86.5956 27.12 86.1158 26.52 85.756 25.8C85.3962 25.08 85.1563 24.12 85.1563 22.92V16.8H83.2373V14.04H85.2763V13.92Z" fill="#292940"></path><path d="M95.4711 13.92V10.08H98.7094V14.04H102.068V16.8H98.7094V23.04C98.7094 23.88 98.8294 24.48 99.1892 24.84C99.549 25.2 99.9088 25.32 100.389 25.32C100.868 25.32 101.468 25.32 101.948 25.2V27.96C101.108 28.08 100.389 28.2 99.549 28.08C98.7094 27.96 98.1097 27.84 97.3901 27.48C96.7904 27.12 96.3107 26.52 95.9508 25.8C95.591 25.08 95.3511 24.12 95.3511 22.92V16.8H93.4321V14.04H95.4711V13.92Z" fill="#292940"></path><path d="M116.82 28.08H113.942L113.702 26.64C113.222 27.1201 112.623 27.6 112.023 27.8401C111.423 28.0801 110.703 28.3201 109.984 28.3201C108.904 28.3201 107.945 28.08 107.105 27.6C106.266 27.12 105.666 26.52 105.306 25.56C104.826 24.72 104.707 23.52 104.707 22.2V13.92H107.945V21.72C107.945 22.92 108.185 23.76 108.665 24.36C109.144 24.96 109.864 25.32 110.823 25.32C111.783 25.32 112.503 24.96 112.982 24.36C113.462 23.76 113.822 22.8 113.822 21.6V13.8H117.06V28.08H116.82Z" fill="#292940"></path><path d="M120.539 7.80005H123.777V28.08H120.539V7.80005Z" fill="#292940"></path><path d="M129.534 11.88C128.934 11.88 128.455 11.64 128.095 11.28C127.735 10.92 127.495 10.44 127.495 9.84005C127.495 9.24005 127.735 8.76005 128.095 8.40005C128.455 8.04005 128.934 7.80005 129.534 7.80005C130.134 7.80005 130.614 8.04005 130.973 8.40005C131.333 8.76005 131.573 9.24005 131.573 9.84005C131.573 10.44 131.333 10.8 130.973 11.28C130.614 11.64 130.134 11.88 129.534 11.88ZM127.855 13.92H131.093V28.08H127.855V13.92Z" fill="#292940"></path><path d="M135.891 12.48C135.891 11.28 136.13 10.44 136.49 9.60001C136.85 8.88001 137.45 8.28001 138.289 7.92001C139.129 7.56001 140.208 7.44001 141.408 7.56001V10.32C140.568 10.2 139.849 10.32 139.609 10.68C139.249 11.04 139.129 11.52 139.129 12.36V13.8H141.648V16.8H139.129V28.08H135.891V16.8H134.211V14.04H135.891V12.48Z" fill="#292940"></path><path d="M150.523 28.3201C149.084 28.3201 147.885 27.9601 146.805 27.3601C145.726 26.7601 144.886 25.9201 144.286 24.7201C143.687 23.6401 143.447 22.3201 143.447 20.8801C143.447 19.5601 143.687 18.2401 144.286 17.1601C144.886 16.0801 145.726 15.2401 146.685 14.6401C147.765 14.0401 148.844 13.6801 150.163 13.6801C151.483 13.6801 152.682 13.9201 153.642 14.5201C154.601 15.1201 155.441 15.9601 156.04 16.9201C156.64 18.0001 156.88 19.2001 156.88 20.5201C156.88 20.7601 156.88 21.0001 156.88 21.2401C156.88 21.4801 156.88 21.7201 156.76 22.0801H146.685C146.805 22.6801 147.045 23.2801 147.285 23.7601C147.645 24.2401 148.004 24.6001 148.484 24.8401C148.964 25.0801 149.564 25.2001 150.283 25.2001C151.123 25.2001 151.843 25.0801 152.442 24.7201C153.042 24.3601 153.522 24.0001 153.762 23.4001L156.52 24.3601C155.92 25.4401 155.081 26.4001 154.001 27.0001C153.042 27.9601 151.843 28.3201 150.523 28.3201ZM153.522 19.6801C153.522 19.0801 153.402 18.6001 153.042 18.1201C152.682 17.6401 152.322 17.2801 151.843 17.0401C151.363 16.8001 150.763 16.6801 150.163 16.6801C149.684 16.6801 149.084 16.8001 148.724 17.0401C148.364 17.2801 147.885 17.6401 147.525 18.1201C147.165 18.6001 146.925 19.0801 146.925 19.8001H153.522V19.6801Z" fill="#292940"></path></g><defs><clipPath id="clip0_417_107"><rect width="157" height="36" fill="white"></rect></clipPath></defs></svg>