<svg xmlns="http://www.w3.org/2000/svg" width="146" height="36" viewBox="0 0 146 36" fill="none"><path d="M23.3645 13.8193C26.4481 13.8193 29.0574 13.8193 31.7852 13.8193C33.5643 13.8193 35.3433 13.8193 37.1224 13.8193C37.4782 13.8193 37.834 13.7031 38.0712 14.0515C38.3084 14.3999 37.834 14.6322 37.5968 14.8644C31.9039 19.858 26.2109 25.0838 20.2808 29.8451C15.4181 33.6773 9.60654 35.5354 3.43919 35.8838C2.96478 35.8838 2.37177 36.116 2.13456 35.6515C1.89736 35.0709 2.49037 34.8386 2.84618 34.6064C6.64147 31.2386 10.4368 27.987 14.3506 24.6193C14.7065 24.2709 15.0623 24.0386 15.4181 23.6902C15.6553 23.458 16.1297 23.3419 15.8925 22.8773C15.7739 22.5289 15.2995 22.6451 14.9437 22.6451C10.7926 22.6451 6.52286 22.6451 2.37177 22.6451C1.77875 22.6451 0.71133 22.9935 0.474125 22.4128C0.118316 21.5999 1.18574 21.3677 1.66015 20.9031C6.28566 16.8386 10.9112 12.7741 15.5367 8.82572C21.704 3.36766 28.9388 0.580564 37.1224 0.116048C37.4782 0.116048 37.834 -0.11621 37.9526 0.348306C38.0712 0.812822 37.5968 1.04508 37.3596 1.27734C34.3945 3.94831 31.3108 6.50314 28.3458 9.17411C26.8039 10.5677 25.0249 11.8451 23.3645 13.8193Z" fill="#292940"></path><path d="M29.8878 35.9999C27.3972 35.9999 25.0251 35.9999 22.5344 35.9999C22.1786 35.9999 21.7042 36.1161 21.5856 35.6515C21.467 35.3031 21.9414 35.0709 22.1786 34.9548C27.1599 30.7741 32.2599 26.5935 37.2412 22.4128C37.597 22.1806 37.8342 21.7161 38.3086 21.9483C38.783 22.1806 38.5458 22.7612 38.6644 23.1096C38.6644 26.9419 38.6644 30.7741 38.6644 34.6064C38.6644 35.7677 38.19 36.2322 37.004 36.1161C34.6319 35.8838 32.2599 35.9999 29.8878 35.9999Z" fill="#292940"></path><path d="M7.94632 -3.62294e-05C9.96257 -3.62294e-05 12.0974 -3.62294e-05 14.1137 -3.62294e-05C14.4695 -3.62294e-05 15.0625 -0.116165 15.1811 0.348351C15.2997 0.812867 14.9439 1.04513 14.5881 1.27738C10.1998 5.45803 5.81147 9.52254 1.30456 13.5871C1.06736 13.8193 0.71155 14.4 0.237139 14.0516C-0.118669 13.9354 -6.65206e-05 13.4709 -6.65206e-05 13.1225C-6.65206e-05 9.29029 -6.65206e-05 5.3419 -6.65206e-05 1.50964C-6.65206e-05 0.348351 0.592947 -3.62294e-05 1.54177 -3.62294e-05C3.67662 -3.62294e-05 5.81147 -3.62294e-05 7.94632 -3.62294e-05Z" fill="#292940"></path><path d="M68.3153 26.9419C66.5362 27.6386 64.6386 27.8709 62.3851 27.8709C55.1504 27.8709 51.5923 24.5031 51.5923 17.6515C51.5923 11.2644 55.1504 8.01282 62.3851 8.01282C64.52 8.01282 66.5362 8.3612 68.3153 8.94185V12.1935C66.5362 11.4967 64.7572 11.1483 62.7409 11.1483C57.9968 11.1483 55.5062 13.3548 55.5062 17.6515C55.5062 22.4128 57.8782 24.7354 62.7409 24.7354C64.7572 24.7354 66.6548 24.387 68.3153 23.6902V26.9419Z" fill="#292940"></path><path d="M84.6825 13.3547V27.7547H81.836L81.3616 25.8967C79.7012 27.1741 77.9221 27.7547 76.0245 27.7547C73.0594 27.7547 71.5176 26.0128 71.5176 22.5289V13.3547H75.1943V22.4128C75.1943 24.0386 75.9059 24.8515 77.3291 24.8515C78.5151 24.8515 79.7012 24.387 81.0058 23.458V13.4709H84.6825V13.3547Z" fill="#292940"></path><path d="M94.4078 13.3547C98.9147 13.3547 101.05 15.5612 101.05 20.0902C101.05 20.6709 101.05 21.2515 100.931 21.8322H91.2055C91.2055 23.8063 92.7473 24.8515 95.7124 24.8515C97.2542 24.8515 98.6775 24.7354 100.219 24.387V27.2902C98.9147 27.5225 97.3728 27.7547 95.4752 27.7547C90.1381 27.7547 87.5288 25.316 87.5288 20.4386C87.5288 15.7934 89.7823 13.3547 94.4078 13.3547ZM91.2055 19.3934H97.4914V19.2773C97.4914 17.3031 96.424 16.258 94.4078 16.258C92.3915 16.258 91.3241 17.3031 91.2055 19.3934Z" fill="#292940"></path><path d="M120.145 26.9419C118.366 27.6386 116.468 27.8709 114.215 27.8709C106.98 27.8709 103.422 24.5031 103.422 17.6515C103.422 11.2644 106.98 8.01282 114.215 8.01282C116.35 8.01282 118.366 8.3612 120.145 8.94185V12.1935C118.366 11.4967 116.587 11.1483 114.571 11.1483C109.826 11.1483 107.336 13.3548 107.336 17.6515C107.336 22.4128 109.708 24.7354 114.571 24.7354C116.587 24.7354 118.484 24.387 120.145 23.6902V26.9419Z" fill="#292940"></path><path d="M122.635 23.3418C122.635 20.4386 124.77 19.0451 129.04 19.0451C129.989 19.0451 131.056 19.1612 132.005 19.2773V18.2322C132.005 16.9547 131.056 16.258 129.158 16.258C127.498 16.258 125.719 16.4902 123.821 16.9547V14.0515C125.838 13.587 127.617 13.3547 129.158 13.3547C133.547 13.3547 135.682 14.9805 135.682 18.116V27.7547H133.547L132.242 26.4773C130.937 27.2902 129.514 27.7547 127.972 27.7547C124.414 27.7547 122.635 26.2451 122.635 23.3418ZM129.04 21.4838C127.261 21.4838 126.312 22.0644 126.312 23.2257C126.312 24.5031 127.024 25.1999 128.565 25.1999C129.751 25.1999 130.937 24.8515 132.005 24.0386V21.716C131.056 21.5999 129.989 21.4838 129.04 21.4838Z" fill="#292940"></path><path d="M139.002 11.0322H141.73L142.323 13.3548H146V16.258H142.679V22.8774C142.679 24.2709 143.272 24.8516 144.458 24.8516H146V27.7548H142.679C140.188 27.7548 139.002 26.4774 139.002 23.9225V11.0322Z" fill="#292940"></path></svg>