<svg xmlns="http://www.w3.org/2000/svg" width="151" height="36" viewBox="0 0 151 36" fill="none"><path d="M15.1827 13.2C19.4196 13.2 23.5388 13.2 27.7758 13.2C29.5412 13.2 30.2473 13.8 30.1297 15.6C30.012 24.24 31.1889 22.8 23.3035 22.92C16.4773 23.04 9.5334 22.92 2.70721 22.92C0.706428 22.92 -0.235116 22.2 0.00027021 20.16C0.117963 18.6 0.117963 16.92 0.00027021 15.36C0.00027021 13.8 0.706428 13.2 2.23644 13.2C6.59107 13.2 10.828 13.2 15.1827 13.2Z" fill="#292940"></path><path d="M14.9473 9.47995C10.7104 9.47995 6.59112 9.47995 2.35418 9.47995C0.588783 9.47995 -0.117374 8.87995 0.000318428 7.07995C0.118011 -1.56005 -1.05892 0.119953 6.59112 -4.67412e-05C13.535 -4.67412e-05 20.4789 0.119953 27.4228 -4.67412e-05C29.4235 -4.67412e-05 30.2474 0.719953 30.1297 2.75995C30.012 4.31995 30.012 5.75995 30.1297 7.31995C30.1297 8.87995 29.5412 9.47995 28.0112 9.47995C23.6566 9.35995 19.302 9.47995 14.9473 9.47995Z" fill="#292940"></path><path d="M5.64926 26.2799C11.7693 26.2799 10.9454 25.6799 10.9454 31.7999C10.9454 32.3999 10.9454 32.9999 10.9454 33.5999C11.0631 35.2799 10.357 35.9999 8.70927 35.9999C6.47311 35.9999 4.23694 35.9999 2.00078 35.9999C0.588464 35.9999 0 35.2799 0 33.8399C0 33.2399 0 32.6399 0 32.0399C0.117693 25.4399 -0.706157 26.3999 5.64926 26.2799Z" fill="#292940"></path><path d="M24.5981 36C18.4781 36 19.4196 36.36 19.3019 30.6C19.3019 30.12 19.3019 29.64 19.3019 29.28C19.0665 27.12 20.0081 26.28 22.1265 26.4C24.1273 26.52 26.1281 26.52 28.2466 26.4C29.6589 26.4 30.2473 27 30.2473 28.44C30.2473 30.24 30.2473 31.92 30.2473 33.72C30.2473 35.4 29.6589 36.12 28.0112 36.12C26.8343 36 25.6573 36 24.5981 36Z" fill="#292940"></path><path d="M55.904 9.71993C55.904 10.0799 55.904 10.3199 55.904 10.5599C55.904 10.7999 55.7863 10.9199 55.7863 11.0399C55.7863 11.1599 55.6686 11.2799 55.5509 11.2799C55.4332 11.2799 55.4332 11.3999 55.3156 11.3999H48.6071V17.0399H54.8448C54.9625 17.0399 55.0802 17.0399 55.0802 17.1599C55.1979 17.1599 55.1979 17.2799 55.3156 17.3999C55.3156 17.5199 55.4332 17.7599 55.4332 17.8799C55.4332 18.1199 55.4332 18.3599 55.4332 18.7199C55.4332 19.0799 55.4332 19.3199 55.4332 19.5599C55.4332 19.7999 55.3156 19.9199 55.3156 20.0399C55.3156 20.1599 55.1979 20.2799 55.0802 20.2799C54.9625 20.2799 54.9625 20.3999 54.8448 20.3999H48.6071V28.1999C48.6071 28.3199 48.6071 28.4399 48.4894 28.5599C48.3717 28.6799 48.3717 28.6799 48.1363 28.7999C48.0186 28.7999 47.7832 28.9199 47.5478 28.9199C47.3124 28.9199 46.9594 28.9199 46.4886 28.9199C46.1355 28.9199 45.7824 28.9199 45.4294 28.9199C45.0763 28.9199 44.9586 28.7999 44.8409 28.7999C44.7232 28.7999 44.6055 28.6799 44.4878 28.5599C44.3701 28.4399 44.3701 28.3199 44.3701 28.1999V9.23993C44.3701 8.75993 44.4878 8.39993 44.7232 8.15993C44.9586 7.91993 45.194 7.79993 45.547 7.79993H55.3156C55.4332 7.79993 55.5509 7.79993 55.5509 7.91993C55.5509 8.03993 55.6686 8.03993 55.7863 8.15993C55.904 8.27993 55.904 8.51993 55.904 8.63993C55.904 9.11993 55.904 9.35993 55.904 9.71993Z" fill="#292940"></path><path d="M63.3185 8.99997C63.3185 9.83997 63.2008 10.32 62.8478 10.68C62.4947 11.04 61.9062 11.16 61.0824 11.16C60.1408 11.16 59.5524 11.04 59.317 10.68C58.9639 10.32 58.8462 9.83997 58.8462 8.99997C58.8462 8.15997 58.9639 7.67997 59.317 7.31997C59.67 6.95997 60.2585 6.83997 61.0824 6.83997C62.0239 6.83997 62.6124 6.95997 62.8478 7.31997C63.2008 7.67997 63.3185 8.15997 63.3185 8.99997ZM63.0831 28.2C63.0831 28.32 63.0831 28.44 62.9654 28.44C62.8478 28.56 62.8478 28.56 62.6124 28.68C62.4947 28.68 62.2593 28.8 62.0239 28.8C61.7885 28.8 61.4354 28.8 61.0824 28.8C60.7293 28.8 60.3762 28.8 60.1408 28.8C59.9054 28.8 59.67 28.68 59.5523 28.68C59.4347 28.68 59.317 28.56 59.1993 28.44C59.0816 28.32 59.0816 28.32 59.0816 28.2V13.92C59.0816 13.8 59.0816 13.68 59.1993 13.68C59.317 13.56 59.317 13.56 59.5523 13.44C59.67 13.44 59.9054 13.32 60.1408 13.32C60.3762 13.32 60.7293 13.32 61.0824 13.32C61.4354 13.32 61.7885 13.32 62.0239 13.32C62.2593 13.32 62.4947 13.44 62.6124 13.44C62.7301 13.44 62.8478 13.56 62.9654 13.68C63.0831 13.8 63.0831 13.8 63.0831 13.92V28.2Z" fill="#292940"></path><path d="M80.3843 28.2C80.3843 28.32 80.3843 28.44 80.2666 28.44C80.1489 28.56 80.1489 28.56 79.9135 28.68C79.7958 28.68 79.5604 28.8 79.325 28.8C79.0897 28.8 78.7366 28.8 78.3835 28.8C78.0304 28.8 77.6773 28.8 77.442 28.8C77.2066 28.8 76.9712 28.68 76.8535 28.68C76.7358 28.68 76.6181 28.56 76.5004 28.44C76.5004 28.44 76.5004 28.32 76.5004 28.2V20.04C76.5004 19.32 76.5004 18.84 76.3827 18.36C76.265 18 76.1473 17.64 75.9119 17.28C75.6766 17.04 75.4412 16.8 75.2058 16.68C74.8527 16.56 74.4996 16.44 74.1466 16.44C73.6758 16.44 73.0873 16.68 72.6165 17.04C72.1458 17.4 71.5573 18 70.9688 18.72V28.2C70.9688 28.32 70.9688 28.44 70.8512 28.44C70.7335 28.56 70.7335 28.56 70.4981 28.68C70.3804 28.68 70.145 28.8 69.9096 28.8C69.6742 28.8 69.3211 28.8 68.9681 28.8C68.615 28.8 68.2619 28.8 68.0265 28.8C67.7911 28.8 67.5557 28.68 67.4381 28.68C67.3204 28.68 67.2027 28.56 67.085 28.44C66.9673 28.32 66.9673 28.32 66.9673 28.2V13.8C66.9673 13.68 66.9673 13.56 67.085 13.56C67.085 13.44 67.2027 13.44 67.3204 13.32C67.4381 13.32 67.6734 13.2 67.7911 13.2C68.0265 13.2 68.2619 13.2 68.615 13.2C68.9681 13.2 69.2034 13.2 69.4388 13.2C69.6742 13.2 69.7919 13.32 69.9096 13.32C70.0273 13.32 70.145 13.44 70.145 13.56C70.145 13.68 70.2627 13.68 70.2627 13.8V15.48C71.0865 14.64 71.7927 13.92 72.6165 13.56C73.4404 13.08 74.2642 12.96 75.0881 12.96C76.0296 12.96 76.8535 13.08 77.5596 13.44C78.2658 13.8 78.7366 14.16 79.2073 14.76C79.5604 15.36 79.9135 15.96 80.0312 16.68C80.2666 17.4 80.2666 18.36 80.2666 19.32V28.2H80.3843Z" fill="#292940"></path><path d="M96.2729 28.2C96.2729 28.32 96.2729 28.44 96.1552 28.56C96.0375 28.68 95.9198 28.68 95.6844 28.8C95.449 28.8 95.0959 28.8 94.6252 28.8C94.1544 28.8 93.8013 28.8 93.5659 28.8C93.3305 28.8 93.2128 28.68 93.0951 28.56C92.9775 28.44 92.9775 28.32 92.9775 28.2V27C92.389 27.6 91.6828 28.08 90.9767 28.44C90.2705 28.8 89.4467 28.92 88.5051 28.92C87.799 28.92 87.0928 28.8 86.5043 28.68C85.9159 28.44 85.3274 28.2 84.8566 27.84C84.3859 27.48 84.0328 27 83.7974 26.4C83.562 25.8 83.4443 25.2 83.4443 24.36C83.4443 23.52 83.562 22.8 83.9151 22.2C84.2682 21.6 84.739 21.12 85.3274 20.64C85.9159 20.16 86.7397 19.92 87.6813 19.8C88.6228 19.56 89.6821 19.56 90.9767 19.56H92.389V18.72C92.389 18.24 92.389 17.88 92.2713 17.52C92.1536 17.16 92.0359 16.92 91.8005 16.68C91.5651 16.44 91.3298 16.32 90.9767 16.2C90.6236 16.08 90.2705 16.08 89.6821 16.08C88.9759 16.08 88.3874 16.2 87.9167 16.32C87.4459 16.44 86.9751 16.68 86.5043 16.8C86.1513 17.04 85.7982 17.16 85.4451 17.28C85.2097 17.4 84.9743 17.52 84.739 17.52C84.6213 17.52 84.5036 17.52 84.3859 17.4C84.2682 17.28 84.2682 17.16 84.1505 17.04C84.1505 16.92 84.0328 16.68 84.0328 16.56C84.0328 16.32 84.0328 16.08 84.0328 15.84C84.0328 15.48 84.0328 15.24 84.1505 15C84.1505 14.76 84.2682 14.64 84.5036 14.52C84.6213 14.4 84.8566 14.16 85.3274 14.04C85.6805 13.8 86.1513 13.68 86.622 13.56C87.0928 13.44 87.6813 13.32 88.2697 13.2C88.8582 13.08 89.4467 13.08 90.0351 13.08C91.0944 13.08 92.0359 13.2 92.8598 13.44C93.6836 13.68 94.2721 14.04 94.7429 14.4C95.2136 14.88 95.5667 15.48 95.8021 16.2C96.0375 16.92 96.1552 17.76 96.1552 18.72V28.2H96.2729ZM92.389 22.08H90.859C90.2705 22.08 89.6821 22.08 89.2113 22.2C88.7405 22.32 88.3874 22.44 88.1521 22.68C87.9167 22.92 87.6813 23.16 87.5636 23.4C87.4459 23.64 87.3282 24 87.3282 24.36C87.3282 24.96 87.5636 25.44 87.9167 25.8C88.2697 26.16 88.8582 26.28 89.4467 26.28C90.0351 26.28 90.5059 26.16 90.9767 25.8C91.4475 25.56 91.9182 25.08 92.389 24.48V22.08Z" fill="#292940"></path><path d="M113.691 28.2C113.691 28.32 113.691 28.44 113.574 28.44C113.456 28.56 113.456 28.56 113.221 28.68C113.103 28.68 112.868 28.8 112.632 28.8C112.397 28.8 112.044 28.8 111.691 28.8C111.338 28.8 110.984 28.8 110.749 28.8C110.514 28.8 110.278 28.68 110.161 28.68C110.043 28.68 109.925 28.56 109.808 28.44C109.69 28.32 109.69 28.32 109.69 28.2V20.04C109.69 19.32 109.69 18.84 109.572 18.36C109.454 17.88 109.337 17.64 109.101 17.28C108.866 17.04 108.631 16.8 108.395 16.68C108.16 16.56 107.689 16.44 107.336 16.44C106.865 16.44 106.277 16.68 105.806 17.04C105.335 17.4 104.747 18 104.158 18.72V28.2C104.158 28.32 104.158 28.44 104.041 28.44C103.923 28.56 103.923 28.56 103.688 28.68C103.57 28.68 103.334 28.8 103.099 28.8C102.864 28.8 102.511 28.8 102.158 28.8C101.804 28.8 101.451 28.8 101.216 28.8C100.981 28.8 100.745 28.68 100.628 28.68C100.51 28.68 100.392 28.56 100.274 28.44C100.157 28.32 100.157 28.32 100.157 28.2V13.8C100.157 13.68 100.157 13.56 100.274 13.56C100.392 13.56 100.392 13.44 100.51 13.32C100.628 13.2 100.863 13.2 100.981 13.2C101.216 13.2 101.451 13.2 101.804 13.2C102.158 13.2 102.393 13.2 102.628 13.2C102.864 13.2 102.981 13.32 103.099 13.32C103.217 13.32 103.334 13.44 103.334 13.56C103.334 13.68 103.452 13.68 103.452 13.8V15.48C104.276 14.64 104.982 13.92 105.806 13.56C106.63 13.08 107.454 12.96 108.278 12.96C109.219 12.96 110.043 13.08 110.749 13.44C111.455 13.8 111.926 14.16 112.397 14.76C112.868 15.36 113.103 15.96 113.221 16.68C113.456 17.4 113.456 18.36 113.456 19.32V28.2H113.691Z" fill="#292940"></path><path d="M128.168 25.92C128.168 26.16 128.168 26.4 128.168 26.64C128.168 26.88 128.168 27 128.05 27.12C128.05 27.24 128.05 27.36 127.932 27.48C127.932 27.6 127.815 27.72 127.697 27.84C127.579 27.96 127.344 28.08 127.108 28.32C126.873 28.56 126.402 28.68 126.049 28.8C125.696 28.92 125.225 29.04 124.755 29.16C124.284 29.28 123.813 29.28 123.342 29.28C122.283 29.28 121.342 29.16 120.518 28.8C119.694 28.44 118.988 27.96 118.399 27.24C117.811 26.52 117.458 25.8 117.105 24.84C116.869 23.88 116.634 22.8 116.634 21.48C116.634 20.04 116.751 18.84 117.105 17.76C117.458 16.68 117.928 15.84 118.635 15.12C119.223 14.4 120.047 13.92 120.871 13.56C121.695 13.2 122.636 13.08 123.695 13.08C124.166 13.08 124.519 13.08 124.99 13.2C125.343 13.32 125.814 13.32 126.167 13.56C126.52 13.68 126.873 13.8 127.108 14.04C127.344 14.16 127.579 14.4 127.697 14.4C127.815 14.52 127.932 14.64 127.932 14.64C127.932 14.76 128.05 14.88 128.05 15C128.05 15.12 128.05 15.24 128.168 15.48C128.285 15.72 128.168 15.84 128.168 16.2C128.168 16.8 128.168 17.28 128.05 17.52C127.932 17.76 127.815 17.88 127.697 17.88C127.462 17.88 127.344 17.76 127.108 17.64C126.873 17.52 126.638 17.28 126.402 17.16C126.167 16.92 125.814 16.8 125.461 16.68C125.108 16.56 124.637 16.44 124.048 16.44C122.989 16.44 122.283 16.8 121.695 17.64C121.106 18.48 120.871 19.68 120.871 21.24C120.871 21.96 120.988 22.68 121.106 23.28C121.224 23.88 121.459 24.36 121.695 24.72C121.93 25.08 122.283 25.44 122.754 25.56C123.107 25.8 123.578 25.8 124.166 25.8C124.755 25.8 125.225 25.68 125.578 25.56C125.932 25.44 126.285 25.2 126.638 24.96C126.991 24.72 127.226 24.6 127.344 24.36C127.579 24.24 127.697 24.12 127.815 24.12C127.932 24.12 127.932 24.12 128.05 24.24C128.168 24.24 128.168 24.36 128.168 24.48C128.168 24.6 128.285 24.84 128.285 25.08C128.285 25.32 128.168 25.56 128.168 25.92Z" fill="#292940"></path><path d="M135.347 8.99997C135.347 9.83997 135.229 10.32 134.876 10.68C134.523 11.04 133.935 11.16 133.111 11.16C132.169 11.16 131.581 11.04 131.345 10.68C130.992 10.32 130.875 9.83997 130.875 8.99997C130.875 8.15997 130.992 7.67997 131.345 7.31997C131.698 6.95997 132.287 6.83997 133.111 6.83997C134.052 6.83997 134.641 6.95997 134.876 7.31997C135.229 7.67997 135.347 8.15997 135.347 8.99997ZM135.111 28.2C135.111 28.32 135.111 28.44 134.994 28.44C134.876 28.56 134.876 28.56 134.641 28.68C134.523 28.68 134.288 28.8 134.052 28.8C133.817 28.8 133.464 28.8 133.111 28.8C132.758 28.8 132.405 28.8 132.169 28.8C131.934 28.8 131.698 28.68 131.581 28.68C131.463 28.68 131.345 28.56 131.228 28.44C131.11 28.32 131.11 28.32 131.11 28.2V13.92C131.11 13.8 131.11 13.68 131.228 13.68C131.345 13.56 131.345 13.56 131.581 13.44C131.698 13.44 131.934 13.32 132.169 13.32C132.405 13.32 132.758 13.32 133.111 13.32C133.464 13.32 133.817 13.32 134.052 13.32C134.288 13.32 134.523 13.44 134.641 13.44C134.758 13.44 134.876 13.56 134.994 13.68C135.111 13.8 135.111 13.8 135.111 13.92V28.2Z" fill="#292940"></path><path d="M151 28.2C151 28.32 151 28.44 150.882 28.56C150.765 28.68 150.647 28.68 150.411 28.8C150.176 28.8 149.823 28.8 149.352 28.8C148.881 28.8 148.528 28.8 148.293 28.8C148.058 28.8 147.94 28.68 147.822 28.56C147.705 28.44 147.705 28.32 147.705 28.2V27C147.116 27.6 146.41 28.08 145.704 28.44C144.998 28.8 144.174 28.92 143.232 28.92C142.526 28.92 141.82 28.8 141.231 28.68C140.643 28.44 140.054 28.2 139.584 27.84C139.113 27.48 138.76 27 138.524 26.4C138.289 25.8 138.171 25.2 138.171 24.36C138.171 23.52 138.289 22.8 138.642 22.2C138.995 21.6 139.466 21.12 140.054 20.64C140.643 20.16 141.467 19.92 142.408 19.8C143.35 19.56 144.409 19.56 145.704 19.56H147.116V18.72C147.116 18.24 147.116 17.88 146.998 17.52C146.881 17.16 146.763 16.92 146.528 16.68C146.292 16.44 146.057 16.32 145.704 16.2C145.351 16.08 144.998 16.08 144.409 16.08C143.703 16.08 143.114 16.2 142.644 16.32C142.173 16.44 141.702 16.68 141.231 16.8C140.878 17.04 140.525 17.16 140.172 17.28C139.937 17.4 139.701 17.52 139.466 17.52C139.348 17.52 139.231 17.52 139.113 17.4C138.995 17.28 138.995 17.16 138.878 17.04C138.878 16.92 138.76 16.68 138.76 16.56C138.76 16.32 138.76 16.08 138.76 15.84C138.76 15.48 138.76 15.24 138.878 15C138.878 14.76 138.995 14.64 139.231 14.52C139.348 14.4 139.584 14.16 140.054 14.04C140.408 13.8 140.878 13.68 141.349 13.56C141.82 13.44 142.408 13.32 142.997 13.2C143.585 13.08 144.174 13.08 144.762 13.08C145.821 13.08 146.763 13.2 147.587 13.44C148.411 13.68 148.999 14.04 149.47 14.4C149.941 14.88 150.294 15.48 150.529 16.2C150.765 16.92 150.882 17.76 150.882 18.72V28.2H151ZM147.116 22.08H145.586C144.998 22.08 144.409 22.08 143.938 22.2C143.468 22.32 143.114 22.44 142.879 22.68C142.644 22.92 142.408 23.16 142.291 23.4C142.173 23.64 142.055 24 142.055 24.36C142.055 24.96 142.291 25.44 142.644 25.8C142.997 26.16 143.585 26.28 144.174 26.28C144.762 26.28 145.233 26.16 145.704 25.8C146.175 25.56 146.645 25.08 147.116 24.48V22.08Z" fill="#292940"></path></svg>