<svg xmlns="http://www.w3.org/2000/svg" width="164" height="36" viewBox="0 0 164 36" fill="none"><path d="M49.3005 17.568H47.5757V9.28795C47.5757 7.84795 47.935 6.76795 48.7256 5.97595C49.5161 5.18395 50.5222 4.75195 51.744 4.75195C53.1094 4.75195 54.1156 5.11195 54.8342 5.90395C55.5529 6.69595 55.9122 7.63195 55.9122 8.85595C55.9122 9.57595 55.7685 10.224 55.481 10.8C55.1936 11.376 54.8342 11.808 54.403 12.096C53.9718 12.384 53.4688 12.6 52.9657 12.744C52.4626 12.888 51.8877 12.96 51.3128 12.96H49.9473V11.376H51.5284C52.3189 11.376 52.9657 11.16 53.3969 10.656C53.8281 10.152 54.1156 9.57595 54.1156 8.85595C54.1156 8.13595 53.9 7.55995 53.4688 7.05595C53.0376 6.62395 52.4626 6.33595 51.6721 6.33595C50.8816 6.33595 50.3066 6.62395 49.8754 7.12795C49.4442 7.63195 49.2286 8.35195 49.2286 9.21595V17.568H49.3005Z" fill="#292940"></path><path d="M64.9674 17.5679H57.7808V7.9919C57.7808 7.1279 58.0682 6.4079 58.6432 5.8319C59.0025 5.4719 59.4337 5.2559 59.9368 5.1119C60.4398 4.9679 61.0148 4.9679 61.7334 4.9679H64.9674V6.5519H61.446C60.1524 6.5519 59.4337 7.1279 59.4337 8.2079V10.2959H63.602V11.8799H59.4337V16.0559H64.8956V17.5679H64.9674Z" fill="#292940"></path><path d="M66.9077 11.376C66.9077 10.368 67.0514 9.50397 67.3389 8.63997C67.6264 7.84797 68.0576 7.12797 68.5607 6.55197C69.0637 5.97597 69.7105 5.54397 70.4292 5.25597C71.1479 4.96797 71.9384 4.82397 72.8727 4.82397C73.7351 4.82397 74.5256 4.96797 75.2443 5.25597C75.9629 5.54397 76.6097 5.97597 77.1128 6.55197C77.6159 7.12797 78.0471 7.77597 78.3345 8.63997C78.622 9.43197 78.7657 10.368 78.7657 11.376C78.7657 12.384 78.622 13.248 78.3345 14.04C78.0471 14.832 77.6877 15.48 77.1128 16.056C76.6097 16.632 75.9629 17.064 75.2443 17.352C74.5256 17.64 73.7351 17.784 72.8008 17.784C71.9384 17.784 71.076 17.64 70.3573 17.352C69.6387 17.064 68.9919 16.632 68.4888 16.056C67.9857 15.48 67.5545 14.832 67.267 14.04C67.0514 13.248 66.9077 12.312 66.9077 11.376ZM76.8972 11.376C76.8972 10.728 76.7535 10.08 76.6097 9.43197C76.3941 8.85597 76.1785 8.27997 75.8192 7.84797C75.4599 7.41597 75.0287 7.05597 74.5256 6.76797C74.0225 6.47997 73.4476 6.33597 72.8008 6.33597C72.154 6.33597 71.5791 6.47997 71.076 6.76797C70.5729 7.05597 70.1417 7.41597 69.7824 7.84797C69.4231 8.27997 69.1356 8.85597 68.9919 9.43197C68.7763 10.008 68.7044 10.656 68.7044 11.376C68.7044 12.096 68.8481 12.672 68.9919 13.32C69.2075 13.896 69.4231 14.4 69.7824 14.832C70.1417 15.264 70.5729 15.624 71.076 15.84C71.5791 16.128 72.154 16.2 72.8008 16.2C73.4476 16.2 74.0225 16.056 74.5256 15.84C75.0287 15.552 75.4599 15.264 75.8192 14.832C76.1785 14.4 76.466 13.896 76.6097 13.32C76.8253 12.672 76.8972 12.024 76.8972 11.376Z" fill="#292940"></path><path d="M82.6467 17.568H80.9219V9.28795C80.9219 7.84795 81.2812 6.76795 82.0717 5.97595C82.8623 5.18395 83.8684 4.75195 85.0902 4.75195C86.4556 4.75195 87.4618 5.11195 88.1804 5.90395C88.8991 6.69595 89.2584 7.63195 89.2584 8.85595C89.2584 9.57595 89.1147 10.224 88.8272 10.8C88.5398 11.376 88.1804 11.808 87.7492 12.096C87.318 12.384 86.815 12.6 86.3119 12.744C85.8088 12.888 85.2339 12.96 84.659 12.96H83.2935V11.376H84.8745C85.6651 11.376 86.3119 11.16 86.7431 10.656C87.1743 10.152 87.4618 9.57595 87.4618 8.85595C87.4618 8.13595 87.2462 7.55995 86.815 7.05595C86.3838 6.62395 85.8088 6.33595 85.0183 6.33595C84.2278 6.33595 83.6528 6.62395 83.2216 7.12795C82.7904 7.63195 82.5748 8.35195 82.5748 9.21595V17.568H82.6467Z" fill="#292940"></path><path d="M98.2417 15.9839V17.5679H95.5826C95.0795 17.5679 94.7202 17.5679 94.4327 17.5679C94.1453 17.5679 93.7859 17.4959 93.3547 17.3519C92.9235 17.2079 92.5642 17.0639 92.2767 16.7759C91.8455 16.3439 91.5581 15.9119 91.4143 15.3359C91.2706 14.7599 91.1987 14.1119 91.1987 13.3199V4.9679H92.9235V13.2479C92.9235 13.9679 92.9954 14.4719 93.1391 14.9039C93.4266 15.6239 94.0734 15.9839 95.0795 15.9839H98.2417Z" fill="#292940"></path><path d="M107.009 17.5679H99.8228V7.9919C99.8228 7.1279 100.11 6.4079 100.685 5.8319C101.044 5.4719 101.476 5.2559 101.979 5.1119C102.482 4.9679 103.057 4.9679 103.775 4.9679H107.009V6.5519H103.488C102.194 6.5519 101.476 7.1279 101.476 8.2079V10.2959H105.644V11.8799H101.476V16.0559H106.938V17.5679H107.009Z" fill="#292940"></path><path d="M114.915 15.9839H116.208V12.2399H114.34V10.6559H117.861V17.6399H115.058C113.118 17.6399 111.609 17.0639 110.531 15.9839C109.453 14.9039 108.878 13.3199 108.878 11.3039C108.878 9.28789 109.453 7.7759 110.531 6.6239C111.609 5.5439 113.118 4.9679 115.058 4.9679H117.143V6.5519H114.843C113.477 6.5519 112.471 6.9839 111.753 7.8479C111.034 8.71189 110.675 9.8639 110.675 11.2319C110.675 12.5999 111.034 13.7519 111.753 14.6159C112.543 15.5519 113.549 15.9839 114.915 15.9839Z" fill="#292940"></path><path d="M120.018 17.568V9.35995C120.018 7.91995 120.377 6.76795 121.096 5.97595C121.814 5.18395 122.82 4.75195 124.114 4.75195C125.479 4.75195 126.486 5.11195 127.204 5.75995C127.923 6.40795 128.282 7.34395 128.282 8.49595C128.282 9.28795 128.067 9.86395 127.707 10.368C127.348 10.872 126.701 11.232 125.839 11.52V11.592C126.773 11.952 127.348 12.456 127.635 13.104C127.923 13.752 128.067 14.832 128.067 16.272V17.64H126.486V15.336C126.486 14.4 126.198 13.68 125.695 13.176C125.192 12.672 124.401 12.384 123.467 12.384H122.461V10.8H123.467C124.617 10.8 125.408 10.584 125.839 10.08C126.27 9.57595 126.486 9.07195 126.486 8.42395C126.486 7.77595 126.27 7.34395 125.839 6.91195C125.408 6.55195 124.833 6.33595 124.114 6.33595C123.252 6.33595 122.677 6.55195 122.245 7.05595C121.814 7.55995 121.599 8.27995 121.599 9.35995V17.568H120.018Z" fill="#292940"></path><path d="M130.294 11.376C130.294 10.368 130.438 9.50397 130.726 8.63997C131.013 7.84797 131.444 7.12797 131.947 6.55197C132.45 5.97597 133.097 5.54397 133.816 5.25597C134.535 4.96797 135.325 4.82397 136.259 4.82397C137.122 4.82397 137.912 4.96797 138.631 5.25597C139.35 5.54397 139.996 5.97597 140.5 6.55197C141.003 7.12797 141.434 7.77597 141.721 8.63997C142.009 9.43197 142.152 10.368 142.152 11.376C142.152 12.384 142.009 13.248 141.721 14.04C141.434 14.832 141.074 15.48 140.5 16.056C139.996 16.632 139.35 17.064 138.631 17.352C137.912 17.64 137.122 17.784 136.188 17.784C135.325 17.784 134.463 17.64 133.744 17.352C133.025 17.064 132.379 16.632 131.876 16.056C131.372 15.48 130.941 14.832 130.654 14.04C130.438 13.248 130.294 12.312 130.294 11.376ZM140.356 11.376C140.356 10.728 140.212 10.08 140.068 9.43197C139.853 8.85597 139.637 8.27997 139.278 7.84797C138.918 7.41597 138.487 7.05597 137.984 6.76797C137.481 6.47997 136.906 6.33597 136.259 6.33597C135.613 6.33597 135.038 6.47997 134.535 6.76797C134.032 7.05597 133.6 7.41597 133.241 7.84797C132.882 8.27997 132.594 8.85597 132.45 9.43197C132.235 10.008 132.163 10.656 132.163 11.376C132.163 12.096 132.307 12.672 132.45 13.32C132.666 13.896 132.882 14.4 133.241 14.832C133.6 15.264 134.032 15.624 134.535 15.84C135.038 16.128 135.613 16.2 136.259 16.2C136.906 16.2 137.481 16.056 137.984 15.84C138.487 15.552 138.918 15.264 139.278 14.832C139.637 14.4 139.925 13.896 140.068 13.32C140.212 12.672 140.284 12.024 140.356 11.376Z" fill="#292940"></path><path d="M151.567 4.9679H153.292V13.6079C153.292 15.0479 152.932 16.0559 152.214 16.7759C151.495 17.4239 150.345 17.7839 148.908 17.7839C147.47 17.7839 146.321 17.4239 145.602 16.7759C144.883 16.1279 144.524 15.0479 144.524 13.6079V4.9679H146.249V13.8239C146.249 14.6159 146.464 15.2639 146.967 15.6239C147.47 15.9839 148.117 16.1999 148.908 16.1999C149.77 16.1999 150.417 15.9839 150.92 15.6239C151.423 15.2639 151.711 14.6879 151.711 13.8239V4.9679H151.567Z" fill="#292940"></path><path d="M157.316 17.568H155.591V9.28795C155.591 7.84795 155.951 6.76795 156.741 5.97595C157.532 5.18395 158.538 4.75195 159.76 4.75195C161.125 4.75195 162.131 5.11195 162.85 5.90395C163.569 6.69595 163.928 7.63195 163.928 8.85595C163.928 9.57595 163.784 10.224 163.497 10.8C163.209 11.376 162.85 11.808 162.419 12.096C161.987 12.384 161.484 12.6 160.981 12.744C160.478 12.888 159.903 12.96 159.328 12.96H158.107V11.376H159.688C160.478 11.376 161.125 11.16 161.556 10.656C161.987 10.152 162.275 9.57595 162.275 8.85595C162.275 8.13595 162.059 7.55995 161.628 7.05595C161.197 6.62395 160.622 6.33595 159.831 6.33595C159.041 6.33595 158.466 6.62395 158.035 7.12795C157.604 7.63195 157.388 8.35195 157.388 9.21595V17.568H157.316Z" fill="#292940"></path><path d="M50.8097 25.2001V25.9201H49.3005C48.7256 25.9201 48.4381 26.1361 48.4381 26.6401C48.4381 26.8561 48.5818 27.0721 48.7974 27.2881C49.0849 27.4321 49.3724 27.648 49.8036 27.792C50.0192 27.864 50.1629 27.9361 50.3066 28.0081C50.4504 28.0801 50.5941 28.1521 50.7378 28.2961C50.8816 28.44 50.9534 28.5841 51.0253 28.8001C51.0972 29.0161 51.0972 29.2321 51.0972 29.4481C51.0972 29.7361 51.0253 29.9521 50.9534 30.2401C50.8097 30.4561 50.666 30.6721 50.5222 30.7441C50.3066 30.8881 50.1629 30.96 49.9473 31.032C49.7317 31.104 49.588 31.1041 49.3724 31.1041C49.3005 31.1041 49.1568 31.1041 49.013 31.1041H47.7194V30.3841H49.013C49.3724 30.3841 49.7317 30.3121 49.9473 30.1681C50.1629 30.0241 50.3066 29.7361 50.3066 29.4481C50.3066 29.3041 50.3066 29.16 50.2348 29.016C50.1629 28.8721 50.091 28.8001 49.9473 28.7281C49.8036 28.6561 49.6598 28.584 49.588 28.512C49.4442 28.44 49.3005 28.368 49.0849 28.2961C49.013 28.2961 49.013 28.2961 48.9412 28.2241C48.0788 27.8641 47.5757 27.3601 47.5757 26.5681C47.5757 26.0641 47.7194 25.7041 48.0069 25.4881C48.2944 25.2721 48.7256 25.1281 49.2286 25.1281H50.8097V25.2001Z" fill="#292940"></path><path d="M57.3493 30.384V31.104H56.1276C55.912 31.104 55.6964 31.104 55.5527 31.104C55.4089 31.104 55.2652 31.0319 55.0496 31.0319C54.834 30.9599 54.6903 30.888 54.5465 30.744C54.3309 30.528 54.1872 30.312 54.1153 30.024C54.0435 29.736 54.0435 29.448 54.0435 29.088V25.2H54.834V29.088C54.834 29.448 54.9059 29.664 54.9777 29.88C55.1215 30.24 55.4089 30.384 55.912 30.384H57.3493Z" fill="#292940"></path><path d="M60.0806 28.152C60.0806 27.648 60.1524 27.288 60.2962 26.856C60.4399 26.496 60.6555 26.136 60.8711 25.848C61.0867 25.56 61.3742 25.344 61.7335 25.2C62.0928 25.056 62.4522 24.984 62.8834 24.984C63.3146 24.984 63.6739 25.056 64.0332 25.2C64.3926 25.344 64.68 25.56 64.8956 25.848C65.1112 26.136 65.3268 26.424 65.4706 26.856C65.6143 27.216 65.6862 27.648 65.6862 28.152C65.6862 28.656 65.6143 29.016 65.4706 29.448C65.3268 29.808 65.1831 30.168 64.8956 30.384C64.68 30.672 64.3926 30.816 64.0332 30.96C63.6739 31.104 63.3146 31.176 62.8834 31.176C62.4522 31.176 62.0928 31.104 61.7335 30.96C61.3742 30.816 61.0867 30.6 60.8711 30.384C60.6555 30.096 60.4399 29.808 60.2962 29.448C60.1524 29.088 60.0806 28.656 60.0806 28.152ZM64.7519 28.152C64.7519 27.864 64.68 27.504 64.6082 27.216C64.5363 26.928 64.3926 26.712 64.2488 26.496C64.1051 26.28 63.8895 26.136 63.6739 25.992C63.4583 25.848 63.1708 25.776 62.8834 25.776C62.5959 25.776 62.3084 25.848 62.0928 25.992C61.8772 26.136 61.6616 26.28 61.5179 26.496C61.3742 26.712 61.2304 26.928 61.1586 27.216C61.0867 27.504 61.0148 27.792 61.0148 28.152C61.0148 28.44 61.0867 28.8 61.1586 29.088C61.2304 29.376 61.3742 29.592 61.5179 29.808C61.6616 30.024 61.8772 30.168 62.0928 30.312C62.3084 30.456 62.5959 30.456 62.8834 30.456C63.1708 30.456 63.4583 30.384 63.6739 30.312C63.8895 30.168 64.1051 30.024 64.2488 29.808C64.3926 29.592 64.5363 29.376 64.6082 29.088C64.7519 28.8 64.7519 28.512 64.7519 28.152Z" fill="#292940"></path><path d="M71.4352 30.384H72.0101V28.584H71.1478V27.864H72.8007V31.176H71.5071C70.5728 31.176 69.8541 30.888 69.3511 30.384C68.848 29.88 68.5605 29.16 68.5605 28.224C68.5605 27.288 68.848 26.568 69.3511 26.064C69.8541 25.56 70.5728 25.272 71.5071 25.272H72.5132V25.992H71.4352C70.7884 25.992 70.3572 26.208 69.9979 26.64C69.6385 27.072 69.4948 27.576 69.4948 28.224C69.4948 28.872 69.7104 29.376 69.9979 29.808C70.3572 30.168 70.7884 30.384 71.4352 30.384Z" fill="#292940"></path><path d="M76.538 31.1041H75.8193V27.3601C75.8193 26.7841 76.0349 26.2081 76.3943 25.7761C76.7536 25.3441 77.3285 25.1281 77.9035 25.1281H79.8439V31.1041H79.0533V25.9201H77.9035C77.4723 25.9201 77.1848 26.0641 76.8973 26.2801C76.6817 26.4961 76.538 26.928 76.538 27.432V28.152C76.8255 27.792 77.3285 27.6481 77.9035 27.6481H78.694V28.3681H77.9035C77.5441 28.3681 77.3285 28.44 77.1129 28.512C76.8973 28.584 76.7536 28.7281 76.538 28.9441V31.1041Z" fill="#292940"></path><path d="M83.7964 31.104H83.0059V25.2H85.09C85.8087 25.2 86.3117 25.344 86.6711 25.704C87.0304 25.992 87.1741 26.496 87.1741 27.216V31.176H86.3836V27.0719C86.3836 26.712 86.2399 26.424 86.0243 26.208C85.8087 26.064 85.4493 25.92 85.09 25.92H83.7964V31.104Z" fill="#292940"></path><path d="M95.008 30.384H95.5829V28.584H94.7205V27.864H96.3734V31.176H95.0798C94.1456 31.176 93.4269 30.888 92.9238 30.384C92.4208 29.88 92.1333 29.16 92.1333 28.224C92.1333 27.288 92.4208 26.568 92.9238 26.064C93.4269 25.56 94.1456 25.272 95.0798 25.272H96.086V25.992H95.008C94.3612 25.992 93.93 26.208 93.5706 26.64C93.2113 27.072 93.0676 27.576 93.0676 28.224C93.0676 28.872 93.2832 29.376 93.5706 29.808C93.93 30.168 94.433 30.384 95.008 30.384Z" fill="#292940"></path><path d="M99.3916 28.152C99.3916 27.648 99.4635 27.288 99.6072 26.856C99.7509 26.496 99.9665 26.136 100.182 25.848C100.398 25.56 100.685 25.344 101.045 25.2C101.404 25.056 101.763 24.984 102.194 24.984C102.626 24.984 102.985 25.056 103.344 25.2C103.704 25.344 103.991 25.56 104.207 25.848C104.422 26.136 104.638 26.424 104.782 26.856C104.925 27.216 104.997 27.648 104.997 28.152C104.997 28.656 104.925 29.016 104.782 29.448C104.638 29.808 104.494 30.168 104.207 30.384C103.991 30.672 103.704 30.816 103.344 30.96C102.985 31.104 102.626 31.176 102.194 31.176C101.763 31.176 101.404 31.104 101.045 30.96C100.685 30.816 100.398 30.6 100.182 30.384C99.9665 30.096 99.7509 29.808 99.6072 29.448C99.4635 29.088 99.3916 28.656 99.3916 28.152ZM104.135 28.152C104.135 27.864 104.063 27.504 103.991 27.216C103.919 26.928 103.775 26.712 103.632 26.496C103.488 26.28 103.272 26.136 103.057 25.992C102.841 25.848 102.554 25.776 102.266 25.776C101.979 25.776 101.691 25.848 101.476 25.992C101.26 26.136 101.045 26.28 100.901 26.496C100.757 26.712 100.613 26.928 100.541 27.216C100.47 27.504 100.398 27.792 100.398 28.152C100.398 28.44 100.47 28.8 100.541 29.088C100.613 29.376 100.757 29.592 100.901 29.808C101.045 30.024 101.26 30.168 101.476 30.312C101.691 30.456 101.979 30.456 102.266 30.456C102.554 30.456 102.841 30.384 103.057 30.312C103.272 30.168 103.488 30.024 103.632 29.808C103.775 29.592 103.919 29.376 103.991 29.088C104.063 28.8 104.135 28.512 104.135 28.152Z" fill="#292940"></path><path d="M111.393 31.1041H108.016V26.5681C108.016 26.1361 108.159 25.8481 108.447 25.5601C108.662 25.4161 108.806 25.2721 109.022 25.2001C109.237 25.1281 109.525 25.1281 109.884 25.1281H111.393V25.8481H109.74C109.094 25.8481 108.806 26.1361 108.806 26.6401V27.5761H110.747V28.2961H108.806V30.2401H111.393V31.1041Z" fill="#292940"></path><path d="M117.286 25.2001V25.9201H115.777C115.202 25.9201 114.915 26.1361 114.915 26.6401C114.915 26.8561 115.058 27.0721 115.274 27.2881C115.49 27.4321 115.849 27.648 116.28 27.792C116.496 27.864 116.639 27.9361 116.783 28.0081C116.927 28.0801 117.071 28.1521 117.214 28.2961C117.358 28.44 117.43 28.5841 117.502 28.8001C117.574 29.0161 117.574 29.2321 117.574 29.4481C117.574 29.7361 117.502 29.9521 117.43 30.2401C117.286 30.4561 117.143 30.6721 116.999 30.7441C116.783 30.8881 116.639 30.96 116.424 31.032C116.208 31.104 116.065 31.1041 115.849 31.1041C115.777 31.1041 115.633 31.1041 115.49 31.1041H114.196V30.3841H115.49C115.849 30.3841 116.208 30.3121 116.424 30.1681C116.639 30.0241 116.783 29.7361 116.783 29.4481C116.783 29.3041 116.783 29.16 116.711 29.016C116.639 28.8721 116.568 28.8001 116.424 28.7281C116.28 28.6561 116.136 28.584 116.065 28.512C115.921 28.44 115.777 28.368 115.561 28.2961C115.49 28.2961 115.49 28.2961 115.418 28.2241C114.555 27.8641 114.052 27.3601 114.052 26.5681C114.052 26.0641 114.196 25.7041 114.483 25.4881C114.771 25.2721 115.202 25.1281 115.705 25.1281H117.286V25.2001Z" fill="#292940"></path><path d="M123.323 31.104H122.533V25.2H123.323V27.72H125.91V25.2H126.701V31.176H125.91V28.44H123.323V31.104Z" fill="#292940"></path><path d="M133.241 31.1041H129.863V26.5681C129.863 26.1361 130.007 25.8481 130.294 25.5601C130.51 25.4161 130.654 25.2721 130.869 25.2001C131.085 25.1281 131.372 25.1281 131.732 25.1281H133.241V25.8481H131.588C130.941 25.8481 130.654 26.1361 130.654 26.6401V27.5761H132.594V28.2961H130.654V30.2401H133.241V31.1041Z" fill="#292940"></path><path d="M136.116 31.104V27.216C136.116 26.496 136.259 25.992 136.619 25.632C136.978 25.272 137.409 25.056 138.056 25.056C138.703 25.056 139.134 25.2 139.493 25.488C139.853 25.776 139.997 26.208 139.997 26.784C139.997 27.144 139.925 27.432 139.709 27.648C139.565 27.864 139.278 28.08 138.847 28.152C139.278 28.296 139.565 28.584 139.709 28.872C139.853 29.16 139.925 29.664 139.925 30.384V31.032H139.134V29.952C139.134 29.52 138.99 29.16 138.775 28.944C138.559 28.728 138.2 28.584 137.697 28.584H137.266V27.864H137.769C138.344 27.864 138.703 27.72 138.919 27.504C139.134 27.288 139.206 27 139.206 26.712C139.206 26.424 139.134 26.208 138.919 25.992C138.703 25.848 138.415 25.704 138.128 25.704C137.769 25.704 137.481 25.848 137.266 26.064C137.05 26.28 136.978 26.64 136.978 27.144V31.032H136.116V31.104Z" fill="#292940"></path><path d="M146.321 31.1041H142.943V26.5681C142.943 26.1361 143.087 25.8481 143.374 25.5601C143.59 25.4161 143.733 25.2721 143.949 25.2001C144.165 25.1281 144.452 25.1281 144.811 25.1281H146.321V25.8481H144.668C144.021 25.8481 143.733 26.1361 143.733 26.6401V27.5761H145.674V28.2961H143.733V30.2401H146.321V31.1041Z" fill="#292940"></path><path d="M18.1825 30.744C16.7452 30.744 15.5234 31.896 15.5234 33.408C15.5234 34.848 16.6733 36.072 18.1825 36.072C19.6198 36.072 20.8416 34.92 20.8416 33.408C20.8416 31.896 19.6198 30.744 18.1825 30.744Z" fill="#292940"></path><path d="M15.0921 31.32C12.5049 30.168 10.7082 27.504 10.7082 24.48C10.7082 23.976 10.7801 23.472 10.8519 23.04L10.9238 22.536H10.3489C9.70208 22.536 9.05527 22.464 8.48034 22.392C8.48034 22.392 8.12101 22.32 7.97727 22.32C6.3962 22.032 4.887 21.24 4.81513 21.24L3.09033 20.448L7.83354 26.352C8.48034 30.096 11.0675 33.12 14.589 34.416C14.5171 34.128 14.4453 33.768 14.4453 33.48C14.5171 32.616 14.7328 31.896 15.0921 31.32Z" fill="#292940"></path><path d="M33.6334 3.95996C33.2022 3.95996 32.6992 4.10396 32.3398 4.31996C31.0462 5.03996 30.615 6.69596 31.4056 7.91996C31.9086 8.71196 32.771 9.21596 33.7053 9.21596C34.1365 9.21596 34.6396 9.07196 34.9989 8.85596C36.2925 8.13596 36.7237 6.47996 35.9332 5.25596C35.4301 4.46396 34.5677 3.95996 33.6334 3.95996Z" fill="#292940"></path><path d="M36.2209 9.21594C36.0053 9.43194 35.7178 9.64794 35.4304 9.79194C34.8554 10.1519 34.2086 10.2959 33.5618 10.2959C33.49 10.2959 33.4181 10.2959 33.3462 10.2959C33.6337 13.1039 32.2682 16.0559 29.6092 17.5679C29.178 17.7839 28.7468 17.9999 28.3156 18.1439L27.8125 18.2879L28.1 18.7199C28.3874 19.2959 28.6749 19.8719 28.8905 20.4479C28.8905 20.4479 29.0342 20.8079 29.1061 20.9519C29.6092 22.4639 29.7529 24.1919 29.7529 24.1919L29.8966 26.0639L32.5557 19.0079C34.2086 17.6399 35.3585 15.7679 35.9334 13.6799C36.4365 12.2399 36.5084 10.6559 36.2209 9.21594Z" fill="#292940"></path><path d="M4.09636 4.31996C3.66516 4.03196 3.23396 3.95996 2.80276 3.95996C1.86849 3.95996 1.00609 4.46396 0.503024 5.25596C0.14369 5.90396 -4.34369e-05 6.55196 0.215557 7.27196C0.431157 7.91996 0.862358 8.49596 1.43729 8.85596C1.86849 9.07196 2.29969 9.21596 2.73089 9.21596C3.66516 9.21596 4.52756 8.71196 5.03063 7.91996C5.7493 6.62396 5.3181 5.03996 4.09636 4.31996Z" fill="#292940"></path><path d="M25.9439 0.57605C24.1472 0.57605 22.3506 1.08005 20.7695 1.94405C17.5355 3.81605 15.5232 7.27205 15.5232 11.016C15.5232 12.528 15.8826 14.04 16.5294 15.408C15.1639 17.352 12.8642 18.504 10.4926 18.504C9.19895 18.504 7.90535 18.144 6.75548 17.496C4.09641 15.984 2.8028 13.104 3.0184 10.224C2.94654 10.224 2.87467 10.224 2.8028 10.224C2.156 10.224 1.5092 10.08 0.934268 9.72005C0.646801 9.57605 0.431201 9.36005 0.143734 9.14405C0.0718668 9.79205 0 10.368 0 11.016C0 14.76 2.01227 18.216 5.24628 20.088C6.82734 21.024 8.62401 21.456 10.4207 21.456C13.8703 21.456 17.0324 19.8001 18.9728 16.9921C22.7099 17.3521 25.6564 20.592 25.6564 24.48C25.6564 27.504 23.8598 30.168 21.2726 31.32C21.6319 31.896 21.9194 32.616 21.9194 33.336C21.9194 33.696 21.8475 33.984 21.7756 34.272C25.8002 32.832 28.6748 28.944 28.6748 24.4081C28.6748 18.9361 24.5066 14.472 19.1884 13.968C17.6074 10.5841 18.901 6.48005 22.2068 4.53605C23.3567 3.88805 24.6503 3.52805 25.9439 3.52805C27.525 3.52805 29.0342 4.03205 30.3278 4.96805C30.6153 4.32005 31.1183 3.81605 31.7651 3.38405C32.0526 3.24005 32.3401 3.09605 32.6275 3.02405C30.8309 1.44005 28.4592 0.57605 25.9439 0.57605Z" fill="#292940"></path><path d="M14.0143 1.224C12.8644 0.792 11.6427 0.576 10.4209 0.576C7.90558 0.576 5.53397 1.44 3.7373 3.024C4.02477 3.096 4.31224 3.24 4.59971 3.384C5.24651 3.744 5.74957 4.32 6.03704 4.968C7.25878 4.032 8.83985 3.528 10.4209 3.528C11.7145 3.528 13.0081 3.888 14.158 4.536C14.5892 4.752 14.9485 5.04 15.3797 5.4L15.7391 5.76L16.0265 5.328C16.3859 4.752 17.392 3.456 17.4639 3.312C18.47 2.088 19.9073 1.152 19.9792 1.152L21.4884 0L14.0143 1.224Z" fill="#292940"></path></svg>