<svg width="178" height="50" viewBox="0 0 178 50" fill="none" xmlns="http://www.w3.org/2000/svg">
<path d="M43.1063 12.1922C42.4861 11.0802 41.7108 10.4448 40.6254 9.80937L25.8947 1.07228C23.5688 -0.357427 20.6227 -0.357427 18.2968 1.07228L3.72116 9.80937C2.48069 10.6037 0.93009 11.8745 0.77503 13.4631C0.46491 17.2756 5.27176 19.6585 8.52802 21.4059C14.1102 24.4241 17.5215 26.1716 20.3126 29.031C20.9328 29.6664 21.8632 30.7784 22.1733 31.5727C22.4834 30.7784 23.4138 29.6664 24.034 29.031C26.67 26.1716 30.2364 24.4241 35.8185 21.4059C38.9197 19.6585 43.5715 17.4345 43.5715 13.4631C43.5715 13.1454 43.4165 12.5099 43.1063 12.1922ZM22.1733 22.6767C19.5373 22.6767 17.5215 20.6116 17.5215 17.911C17.5215 15.2105 19.5373 13.1454 22.1733 13.1454C24.8093 13.1454 26.8251 15.2105 26.8251 17.911C26.8251 20.6116 24.8093 22.6767 22.1733 22.6767Z" fill="#00C07C"/>
<path d="M35.8188 23.7888C29.3063 27.2837 24.6545 29.0311 22.9488 34.7499C22.7938 35.3853 22.4837 36.1796 22.1735 37.6093C21.8634 36.1796 21.7084 35.5442 21.3982 34.7499C19.5375 29.0311 15.0408 27.2837 8.52828 23.7888C1.70566 20.1351 0.310119 18.2289 0 17.4346V33.7968C0 36.4973 1.39554 39.039 3.72143 40.4687L18.4521 49.2058C18.9173 49.5235 19.5375 49.8412 20.0027 50.0001C19.8476 49.3647 19.5375 48.7293 19.3825 47.935C14.7307 34.7499 6.66757 31.5728 6.66757 31.5728C6.66757 31.5728 10.389 31.8905 15.8161 37.6093C18.4521 40.3099 20.4679 43.6459 22.1735 47.1407C22.1735 47.1407 25.7399 40.4687 28.531 37.6093C33.9581 31.8905 37.6795 31.5728 37.6795 31.5728C37.6795 31.5728 29.6164 34.7499 24.9646 47.935C24.6545 48.7293 24.4994 49.3647 24.3444 50.0001C24.8096 49.8412 25.2747 49.5235 25.895 49.2058L40.6256 40.4687C42.9515 39.039 44.3471 36.4973 44.3471 33.7968V17.5934C44.037 18.3877 42.6414 20.1351 35.8188 23.7888Z" fill="#00C07C"/>
<path d="M57.9297 2.56587H62.7064V27.2933H57.9297V2.56587Z" fill="#262566"/>
<path d="M67.3233 9.63086H71.4278L71.7462 11.4324C72.3124 10.7966 72.9964 10.302 73.7984 9.94878C74.6241 9.57198 75.5086 9.38358 76.4522 9.38358C77.8439 9.38358 79.0233 9.67796 79.9905 10.2667C80.9812 10.8555 81.736 11.715 82.255 12.8454C82.7975 13.9523 83.0688 15.3299 83.0688 16.9784V27.2933H78.5044V17.579C78.5044 16.2131 78.2331 15.1886 77.6906 14.5057C77.148 13.8227 76.3342 13.4813 75.2492 13.4813C74.1405 13.4813 73.2913 13.8345 72.7016 14.541C72.1354 15.224 71.8524 16.2484 71.8524 17.6143V27.2933H67.3233V9.63086Z" fill="#262566"/>
<path d="M90.3417 21.5354C90.4832 22.1241 90.7191 22.5716 91.0494 22.8777C91.4032 23.1839 91.7924 23.4076 92.217 23.5489C92.6652 23.6666 93.1134 23.7255 93.5616 23.7255C94.3872 23.7255 95.0359 23.5724 95.5076 23.2663C95.9794 22.9366 96.2153 22.5245 96.2153 22.0299C96.2153 21.606 96.0502 21.2763 95.7199 21.0408C95.3897 20.7818 94.9651 20.5816 94.4461 20.4403C93.9508 20.299 93.42 20.1695 92.8539 20.0517C92.217 19.8869 91.5329 19.7102 90.8017 19.5218C90.094 19.3099 89.4217 19.0155 88.7848 18.6387C88.1479 18.2619 87.6172 17.7791 87.1926 17.1904C86.7916 16.5781 86.5911 15.8127 86.5911 14.8943C86.5911 13.7874 86.886 12.8336 87.4757 12.033C88.0654 11.2087 88.891 10.5611 89.9525 10.0901C91.0376 9.61908 92.2878 9.38358 93.7031 9.38358C95.3779 9.38358 96.7932 9.73683 97.9491 10.4433C99.1049 11.1498 99.9423 12.1625 100.461 13.4813L96.4984 14.6117C96.3568 14.282 96.1445 14.0111 95.8615 13.7992C95.5784 13.5872 95.2364 13.4342 94.8353 13.34C94.4579 13.2458 94.0687 13.1987 93.6677 13.1987C92.9836 13.1987 92.4175 13.34 91.9693 13.6226C91.5211 13.8816 91.297 14.2466 91.297 14.7176C91.297 15.0002 91.3796 15.2357 91.5447 15.4241C91.7098 15.589 91.9339 15.7303 92.217 15.848C92.5237 15.9658 92.8657 16.0718 93.2431 16.166C93.6441 16.2602 94.0805 16.3661 94.5523 16.4839C95.2835 16.6723 96.0148 16.896 96.746 17.1551C97.5009 17.3906 98.1849 17.6967 98.7983 18.0735C99.4351 18.4503 99.9423 18.9566 100.32 19.5925C100.697 20.2283 100.909 21.029 100.957 21.9946C100.957 23.0308 100.662 23.9728 100.072 24.8206C99.4823 25.6448 98.6331 26.3042 97.5245 26.7988C96.4158 27.2933 95.0712 27.5406 93.4908 27.5406C91.6509 27.5406 90.0822 27.152 88.7848 26.3749C87.511 25.5977 86.6736 24.3849 86.2726 22.7364L90.3417 21.5354Z" fill="#262566"/>
<path d="M119.967 27.2933H115.827L115.544 25.4564C114.955 26.1158 114.247 26.6339 113.421 27.0107C112.619 27.364 111.758 27.5406 110.838 27.5406C109.47 27.5406 108.291 27.2462 107.3 26.6575C106.309 26.0687 105.543 25.2209 105 24.1141C104.458 22.9837 104.186 21.5942 104.186 19.9457V9.63086H108.751V19.3805C108.751 20.7229 109.01 21.7473 109.529 22.4538C110.072 23.1367 110.897 23.4782 112.006 23.4782C113.115 23.4782 113.964 23.125 114.554 22.4185C115.143 21.712 115.438 20.6876 115.438 19.3452V9.63086H119.967V27.2933Z" fill="#262566"/>
<path d="M124.303 9.63086H128.407L128.725 11.8917C129.221 11.2794 129.775 10.7848 130.388 10.408C131.025 10.0077 131.721 9.73683 132.476 9.59553C133.231 9.43068 134.021 9.44246 134.847 9.63086V13.8698C134.21 13.6579 133.538 13.599 132.83 13.6932C132.146 13.7874 131.497 14.0347 130.884 14.435C130.294 14.8354 129.799 15.4124 129.398 16.166C129.02 16.896 128.832 17.8262 128.832 18.9566V27.2933H124.303V9.63086Z" fill="#262566"/>
<path d="M145.43 27.5406C143.661 27.5406 142.104 27.152 140.76 26.3749C139.415 25.5977 138.366 24.5144 137.611 23.125C136.879 21.7355 136.514 20.1341 136.514 18.3208C136.514 16.5781 136.879 15.0356 137.611 13.6932C138.366 12.3509 139.392 11.3029 140.689 10.5493C141.986 9.77216 143.473 9.38358 145.147 9.38358C146.846 9.38358 148.344 9.74861 149.641 10.4787C150.938 11.2087 151.941 12.2331 152.649 13.5519C153.38 14.8472 153.745 16.3661 153.745 18.1088C153.745 18.3679 153.722 18.6623 153.675 18.992C153.651 19.2981 153.616 19.6278 153.568 19.9811H141.397C141.491 20.7347 141.727 21.3823 142.104 21.9239C142.505 22.442 142.989 22.8542 143.555 23.1603C144.145 23.4429 144.805 23.5842 145.537 23.5842C146.409 23.5842 147.188 23.4076 147.872 23.0543C148.579 22.7011 149.087 22.2183 149.393 21.606L153.392 22.8071C152.684 24.3142 151.634 25.48 150.242 26.3042C148.851 27.1285 147.247 27.5406 145.43 27.5406ZM148.792 16.6958C148.768 16.0364 148.591 15.4477 148.261 14.9296C147.931 14.3879 147.494 13.9758 146.952 13.6932C146.409 13.3871 145.808 13.234 145.147 13.234C144.558 13.234 144.003 13.3871 143.484 13.6932C142.965 13.9758 142.517 14.3762 142.14 14.8943C141.786 15.4124 141.55 16.0129 141.432 16.6958H148.792Z" fill="#262566"/>
<path d="M158.057 9.63086V4.68537H162.621V9.63086H166.549V13.6226H162.621V20.7935C162.621 21.712 162.822 22.3596 163.223 22.7364C163.624 23.1132 164.119 23.3134 164.709 23.3369C165.322 23.3605 165.936 23.3251 166.549 23.2309V27.1167C165.464 27.3522 164.402 27.4228 163.364 27.3286C162.35 27.2344 161.442 26.9636 160.64 26.5162C159.838 26.0452 159.201 25.3387 158.729 24.3967C158.281 23.4547 158.057 22.2536 158.057 20.7935V13.6226H155.545V9.63086H158.057Z" fill="#262566"/>
<path d="M170.377 9.63086H174.906V27.2933H170.377V9.63086ZM172.677 7.37006C171.828 7.37006 171.132 7.09924 170.589 6.55759C170.047 6.01594 169.775 5.36832 169.775 4.61472C169.775 3.83757 170.047 3.18995 170.589 2.67185C171.132 2.1302 171.828 1.85938 172.677 1.85938C173.479 1.85938 174.151 2.1302 174.694 2.67185C175.26 3.18995 175.543 3.83757 175.543 4.61472C175.543 5.36832 175.26 6.01594 174.694 6.55759C174.151 7.09924 173.479 7.37006 172.677 7.37006Z" fill="#262566"/>
<path d="M57.8199 36.4204V45.8855H56.6719V36.4204H57.8199Z" fill="#696969"/>
<path d="M61.0662 41.6151V45.8855H59.9737V38.7867H61.0291V39.8959H61.1217C61.2884 39.5354 61.5414 39.2458 61.8809 39.027C62.2204 38.8052 62.6586 38.6943 63.1956 38.6943C63.677 38.6943 64.0983 38.7928 64.4594 38.99C64.8205 39.1841 65.1013 39.4799 65.3019 39.8774C65.5025 40.2718 65.6028 40.7709 65.6028 41.3748V45.8855H64.5103V41.4487C64.5103 40.8911 64.3652 40.4566 64.0751 40.1454C63.785 39.8312 63.3869 39.674 62.8808 39.674C62.5321 39.674 62.2204 39.7495 61.9457 39.9005C61.6741 40.0515 61.4596 40.2718 61.3022 40.5614C61.1449 40.851 61.0662 41.2022 61.0662 41.6151Z" fill="#696969"/>
<path d="M72.6357 40.3765L71.6543 40.6538C71.5926 40.4905 71.5016 40.3318 71.3812 40.1778C71.2639 40.0207 71.1035 39.8912 70.8998 39.7896C70.6961 39.6879 70.4353 39.6371 70.1174 39.6371C69.6823 39.6371 69.3197 39.7372 69.0296 39.9375C68.7426 40.1347 68.599 40.3858 68.599 40.6908C68.599 40.9619 68.6978 41.1761 68.8953 41.3332C69.0928 41.4903 69.4014 41.6213 69.8212 41.726L70.8766 41.9848C71.5124 42.1389 71.9861 42.3746 72.2978 42.6919C72.6095 43.0062 72.7653 43.4114 72.7653 43.9074C72.7653 44.3141 72.6481 44.6777 72.4135 44.9981C72.1821 45.3186 71.858 45.5712 71.4414 45.7561C71.0248 45.9409 70.5402 46.0334 69.9878 46.0334C69.2626 46.0334 68.6623 45.8762 68.187 45.562C67.7118 45.2477 67.4109 44.7886 67.2844 44.1847L68.3213 43.9259C68.4201 44.308 68.6068 44.5945 68.8814 44.7855C69.1592 44.9766 69.5218 45.0721 69.9693 45.0721C70.4785 45.0721 70.8828 44.9642 71.1822 44.7486C71.4846 44.5298 71.6358 44.2679 71.6358 43.9629C71.6358 43.7164 71.5494 43.51 71.3766 43.3436C71.2038 43.1741 70.9383 43.0478 70.5804 42.9646L69.3953 42.6873C68.7441 42.5333 68.2657 42.2945 67.9602 41.971C67.6578 41.6444 67.5066 41.2361 67.5066 40.7462C67.5066 40.3457 67.6192 39.9914 67.8445 39.6833C68.0729 39.3752 68.383 39.1333 68.775 38.9577C69.17 38.7821 69.6175 38.6943 70.1174 38.6943C70.8211 38.6943 71.3735 38.8483 71.7747 39.1564C72.179 39.4645 72.466 39.8712 72.6357 40.3765Z" fill="#696969"/>
<path d="M78.891 42.9831V38.7867H79.9834V45.8855H78.891V44.6839H78.8169C78.6502 45.0443 78.391 45.3509 78.0392 45.6036C77.6874 45.8531 77.243 45.9779 76.706 45.9779C76.2616 45.9779 75.8665 45.8808 75.5209 45.6867C75.1752 45.4896 74.9037 45.1938 74.7061 44.7994C74.5086 44.4019 74.4099 43.9013 74.4099 43.2974V38.7867H75.5024V43.2234C75.5024 43.741 75.6474 44.1539 75.9375 44.462C76.2307 44.7701 76.6041 44.9242 77.0578 44.9242C77.3294 44.9242 77.6056 44.8549 77.8864 44.7162C78.1703 44.5776 78.408 44.365 78.5993 44.0784C78.7937 43.7919 78.891 43.4268 78.891 42.9831Z" fill="#696969"/>
<path d="M81.9844 45.8855V38.7867H83.0399V39.8589H83.114C83.2436 39.5077 83.4781 39.2227 83.8176 39.0039C84.1571 38.7851 84.5398 38.6758 84.9656 38.6758C85.0459 38.6758 85.1462 38.6773 85.2665 38.6804C85.3869 38.6835 85.4779 38.6881 85.5397 38.6943V39.8034C85.5026 39.7942 85.4178 39.7803 85.2851 39.7618C85.1554 39.7403 85.0181 39.7295 84.8731 39.7295C84.5274 39.7295 84.2188 39.8019 83.9472 39.9467C83.6787 40.0884 83.4658 40.2856 83.3084 40.5383C83.1541 40.7878 83.0769 41.0728 83.0769 41.3933V45.8855H81.9844Z" fill="#696969"/>
<path d="M88.9271 46.0518C88.4765 46.0518 88.0676 45.9671 87.7003 45.7977C87.3331 45.6251 87.0415 45.3771 86.8254 45.0536C86.6094 44.727 86.5014 44.3326 86.5014 43.8705C86.5014 43.4637 86.5816 43.1341 86.7421 42.8814C86.9026 42.6257 87.1171 42.4254 87.3856 42.2806C87.6541 42.1358 87.9503 42.028 88.2744 41.9571C88.6015 41.8832 88.9302 41.8246 89.2604 41.7815C89.6925 41.726 90.0427 41.6844 90.3112 41.6567C90.5828 41.6259 90.7803 41.5751 90.9038 41.5042C91.0303 41.4333 91.0936 41.3101 91.0936 41.1345V41.0975C91.0936 40.6415 90.9686 40.2872 90.7186 40.0345C90.4717 39.7819 90.0967 39.6555 89.5937 39.6555C89.0721 39.6555 88.6632 39.7695 88.367 39.9975C88.0707 40.2255 87.8624 40.4689 87.742 40.7278L86.7051 40.358C86.8902 39.9267 87.1371 39.5908 87.4457 39.3505C87.7574 39.1071 88.0969 38.9377 88.4642 38.8421C88.8345 38.7435 89.1987 38.6943 89.5567 38.6943C89.785 38.6943 90.0474 38.722 90.3436 38.7774C90.643 38.8298 90.9315 38.9392 91.2093 39.1056C91.4901 39.272 91.7231 39.5231 91.9083 39.8589C92.0935 40.1947 92.1861 40.6446 92.1861 41.2084V45.8855H91.0936V44.9242H91.038C90.9639 45.0782 90.8405 45.2431 90.6677 45.4187C90.4949 45.5943 90.2649 45.7437 89.9779 45.867C89.6909 45.9902 89.3406 46.0518 88.9271 46.0518ZM89.0937 45.0721C89.5258 45.0721 89.89 44.9873 90.1862 44.8179C90.4856 44.6484 90.7109 44.4297 90.8621 44.1616C91.0164 43.8936 91.0936 43.6116 91.0936 43.3159V42.3176C91.0473 42.3731 90.9454 42.4239 90.788 42.4701C90.6337 42.5132 90.4547 42.5518 90.251 42.5856C90.0504 42.6165 89.8545 42.6442 89.6631 42.6688C89.4749 42.6904 89.3221 42.7089 89.2048 42.7243C88.9209 42.7613 88.6555 42.8213 88.4086 42.9045C88.1648 42.9846 87.9673 43.1063 87.8161 43.2696C87.6679 43.4299 87.5939 43.6486 87.5939 43.9259C87.5939 44.3049 87.7343 44.5914 88.0151 44.7855C88.2991 44.9766 88.6586 45.0721 89.0937 45.0721Z" fill="#696969"/>
<path d="M95.2726 41.6151V45.8855H94.1801V38.7867H95.2356V39.8959H95.3281C95.4948 39.5354 95.7478 39.2458 96.0873 39.027C96.4268 38.8052 96.865 38.6943 97.402 38.6943C97.8835 38.6943 98.3047 38.7928 98.6658 38.99C99.0269 39.1841 99.3077 39.4799 99.5083 39.8774C99.7089 40.2718 99.8092 40.7709 99.8092 41.3748V45.8855H98.7167V41.4487C98.7167 40.8911 98.5717 40.4566 98.2816 40.1454C97.9915 39.8312 97.5934 39.674 97.0872 39.674C96.7385 39.674 96.4268 39.7495 96.1521 39.9005C95.8806 40.0515 95.6661 40.2718 95.5087 40.5614C95.3513 40.851 95.2726 41.2022 95.2726 41.6151Z" fill="#696969"/>
<path d="M104.694 46.0334C104.028 46.0334 103.454 45.8762 102.972 45.562C102.491 45.2477 102.12 44.8148 101.861 44.2633C101.602 43.7118 101.472 43.0817 101.472 42.373C101.472 41.6521 101.605 41.0158 101.87 40.4643C102.139 39.9097 102.512 39.4768 102.991 39.1657C103.472 38.8514 104.034 38.6943 104.676 38.6943C105.176 38.6943 105.626 38.7867 106.027 38.9715C106.429 39.1564 106.757 39.4152 107.013 39.748C107.27 40.0807 107.429 40.4689 107.49 40.9126H106.398C106.314 40.5891 106.129 40.3026 105.842 40.053C105.558 39.8004 105.176 39.674 104.694 39.674C104.268 39.674 103.895 39.785 103.574 40.0068C103.256 40.2255 103.008 40.5352 102.829 40.9357C102.653 41.3332 102.565 41.8 102.565 42.3361C102.565 42.8845 102.651 43.3621 102.824 43.7688C103 44.1755 103.247 44.4913 103.565 44.7162C103.886 44.9411 104.262 45.0536 104.694 45.0536C104.978 45.0536 105.236 45.0043 105.467 44.9057C105.699 44.8071 105.895 44.6654 106.055 44.4805C106.216 44.2956 106.33 44.0738 106.398 43.815H107.49C107.429 44.234 107.276 44.6114 107.032 44.9473C106.791 45.28 106.472 45.545 106.074 45.7422C105.679 45.9363 105.219 46.0334 104.694 46.0334Z" fill="#696969"/>
<path d="M112.069 46.0334C111.383 46.0334 110.792 45.8824 110.296 45.5804C109.802 45.2754 109.421 44.8502 109.152 44.3049C108.887 43.7565 108.754 43.1187 108.754 42.3915C108.754 41.6644 108.887 41.0235 109.152 40.4689C109.421 39.9113 109.794 39.4768 110.272 39.1657C110.754 38.8514 111.316 38.6943 111.957 38.6943C112.328 38.6943 112.693 38.7559 113.055 38.8791C113.416 39.0024 113.744 39.2026 114.041 39.4799C114.337 39.7541 114.573 40.1177 114.749 40.5706C114.925 41.0235 115.013 41.5812 115.013 42.2436V42.7058H109.532V41.763H113.902C113.902 41.3625 113.821 41.0051 113.661 40.6908C113.504 40.3765 113.278 40.1285 112.985 39.9467C112.695 39.7649 112.352 39.674 111.957 39.674C111.522 39.674 111.146 39.7819 110.828 39.9975C110.513 40.2101 110.271 40.4874 110.101 40.8294C109.931 41.1714 109.847 41.5381 109.847 41.9294V42.5579C109.847 43.094 109.939 43.5485 110.124 43.9213C110.313 44.291 110.573 44.5729 110.907 44.767C111.24 44.9581 111.627 45.0536 112.069 45.0536C112.356 45.0536 112.615 45.0135 112.846 44.9334C113.081 44.8502 113.283 44.727 113.453 44.5637C113.622 44.3973 113.754 44.1909 113.846 43.9444L114.902 44.2402C114.791 44.5976 114.604 44.9119 114.341 45.183C114.079 45.451 113.755 45.6606 113.369 45.8115C112.984 45.9594 112.55 46.0334 112.069 46.0334Z" fill="#696969"/>
<path d="M128.118 39.3782H126.97C126.902 39.0486 126.783 38.759 126.614 38.5094C126.447 38.2598 126.243 38.0503 126.002 37.8808C125.765 37.7083 125.501 37.5789 125.211 37.4926C124.921 37.4064 124.618 37.3632 124.304 37.3632C123.73 37.3632 123.21 37.508 122.744 37.7977C122.281 38.0873 121.912 38.514 121.637 39.0778C121.366 39.6417 121.23 40.3334 121.23 41.1529C121.23 41.9725 121.366 42.6642 121.637 43.228C121.912 43.7919 122.281 44.2186 122.744 44.5082C123.21 44.7979 123.73 44.9427 124.304 44.9427C124.618 44.9427 124.921 44.8995 125.211 44.8133C125.501 44.727 125.765 44.5991 126.002 44.4297C126.243 44.2571 126.447 44.0461 126.614 43.7965C126.783 43.5439 126.902 43.2542 126.97 42.9276H128.118C128.032 43.4114 127.874 43.8443 127.646 44.2263C127.417 44.6084 127.134 44.9334 126.794 45.2015C126.455 45.4664 126.073 45.6683 125.651 45.8069C125.231 45.9456 124.782 46.0149 124.304 46.0149C123.495 46.0149 122.776 45.8177 122.146 45.4233C121.517 45.0289 121.021 44.4682 120.66 43.741C120.299 43.0139 120.119 42.1512 120.119 41.1529C120.119 40.1547 120.299 39.292 120.66 38.5648C121.021 37.8377 121.517 37.277 122.146 36.8826C122.776 36.4882 123.495 36.291 124.304 36.291C124.782 36.291 125.231 36.3603 125.651 36.499C126.073 36.6376 126.455 36.841 126.794 37.109C127.134 37.374 127.417 37.6975 127.646 38.0796C127.874 38.4585 128.032 38.8914 128.118 39.3782Z" fill="#696969"/>
<path d="M132.714 46.0334C132.072 46.0334 131.509 45.8808 131.024 45.5758C130.543 45.2708 130.166 44.8441 129.894 44.2956C129.626 43.7472 129.492 43.1063 129.492 42.373C129.492 41.6336 129.626 40.9881 129.894 40.4366C130.166 39.8851 130.543 39.4568 131.024 39.1518C131.509 38.8468 132.072 38.6943 132.714 38.6943C133.356 38.6943 133.917 38.8468 134.399 39.1518C134.883 39.4568 135.26 39.8851 135.528 40.4366C135.8 40.9881 135.936 41.6336 135.936 42.373C135.936 43.1063 135.8 43.7472 135.528 44.2956C135.26 44.8441 134.883 45.2708 134.399 45.5758C133.917 45.8808 133.356 46.0334 132.714 46.0334ZM132.714 45.0536C133.201 45.0536 133.602 44.9288 133.917 44.6792C134.232 44.4297 134.465 44.1015 134.616 43.6948C134.768 43.2881 134.843 42.8475 134.843 42.373C134.843 41.8986 134.768 41.4564 134.616 41.0466C134.465 40.6369 134.232 40.3057 133.917 40.053C133.602 39.8004 133.201 39.674 132.714 39.674C132.226 39.674 131.825 39.8004 131.51 40.053C131.195 40.3057 130.962 40.6369 130.811 41.0466C130.66 41.4564 130.584 41.8986 130.584 42.373C130.584 42.8475 130.66 43.2881 130.811 43.6948C130.962 44.1015 131.195 44.4297 131.51 44.6792C131.825 44.9288 132.226 45.0536 132.714 45.0536Z" fill="#696969"/>
<path d="M137.603 45.8855V38.7867H138.659V39.8959H138.751C138.899 39.5169 139.139 39.2227 139.469 39.0131C139.799 38.8005 140.196 38.6943 140.659 38.6943C141.128 38.6943 141.518 38.8005 141.83 39.0131C142.145 39.2227 142.39 39.5169 142.566 39.8959H142.64C142.822 39.5292 143.095 39.2381 143.459 39.0224C143.823 38.8036 144.26 38.6943 144.769 38.6943C145.405 38.6943 145.925 38.893 146.329 39.2904C146.734 39.6848 146.936 40.2995 146.936 41.1345V45.8855H145.843V41.1345C145.843 40.6107 145.7 40.2363 145.413 40.0114C145.126 39.7865 144.788 39.674 144.399 39.674C143.899 39.674 143.512 39.825 143.237 40.1269C142.962 40.4258 142.825 40.8048 142.825 41.2639V45.8855H141.714V41.0235C141.714 40.6199 141.583 40.2949 141.321 40.0484C141.058 39.7988 140.72 39.674 140.307 39.674C140.023 39.674 139.757 39.7495 139.511 39.9005C139.267 40.0515 139.069 40.261 138.918 40.529C138.77 40.794 138.696 41.1006 138.696 41.4487V45.8855H137.603Z" fill="#696969"/>
<path d="M148.933 48.5475V38.7867H149.989V39.9144H150.118C150.199 39.7911 150.31 39.634 150.452 39.443C150.597 39.2488 150.803 39.0763 151.072 38.9253C151.344 38.7713 151.711 38.6943 152.174 38.6943C152.772 38.6943 153.3 38.8437 153.757 39.1425C154.214 39.4414 154.57 39.8651 154.826 40.4135C155.082 40.9619 155.211 41.6089 155.211 42.3546C155.211 43.1063 155.082 43.758 154.826 44.3095C154.57 44.8579 154.215 45.2831 153.762 45.5851C153.308 45.8839 152.785 46.0334 152.192 46.0334C151.736 46.0334 151.37 45.9579 151.095 45.8069C150.82 45.6528 150.609 45.4788 150.461 45.2847C150.313 45.0875 150.199 44.9242 150.118 44.7948H150.026V48.5475H148.933ZM150.007 42.3361C150.007 42.8722 150.086 43.3451 150.243 43.7549C150.401 44.1616 150.631 44.4805 150.933 44.7116C151.236 44.9396 151.606 45.0536 152.044 45.0536C152.501 45.0536 152.882 44.9334 153.188 44.6931C153.496 44.4497 153.728 44.1231 153.882 43.7133C154.039 43.3005 154.118 42.8414 154.118 42.3361C154.118 41.8369 154.041 41.3871 153.887 40.9866C153.735 40.5829 153.505 40.2641 153.197 40.0299C152.891 39.7927 152.507 39.674 152.044 39.674C151.6 39.674 151.226 39.7865 150.924 40.0114C150.621 40.2332 150.393 40.5444 150.239 40.945C150.084 41.3424 150.007 41.8061 150.007 42.3361Z" fill="#696969"/>
<path d="M158.969 46.0518C158.519 46.0518 158.11 45.9671 157.743 45.7977C157.375 45.6251 157.084 45.3771 156.868 45.0536C156.652 44.727 156.544 44.3326 156.544 43.8705C156.544 43.4637 156.624 43.1341 156.784 42.8814C156.945 42.6257 157.159 42.4254 157.428 42.2806C157.696 42.1358 157.993 42.028 158.317 41.9571C158.644 41.8832 158.973 41.8246 159.303 41.7815C159.735 41.726 160.085 41.6844 160.354 41.6567C160.625 41.6259 160.823 41.5751 160.946 41.5042C161.073 41.4333 161.136 41.3101 161.136 41.1345V41.0975C161.136 40.6415 161.011 40.2872 160.761 40.0345C160.514 39.7819 160.139 39.6555 159.636 39.6555C159.114 39.6555 158.706 39.7695 158.409 39.9975C158.113 40.2255 157.905 40.4689 157.784 40.7278L156.747 40.358C156.933 39.9267 157.179 39.5908 157.488 39.3505C157.8 39.1071 158.139 38.9377 158.507 38.8421C158.877 38.7435 159.241 38.6943 159.599 38.6943C159.827 38.6943 160.09 38.722 160.386 38.7774C160.685 38.8298 160.974 38.9392 161.252 39.1056C161.532 39.272 161.765 39.5231 161.951 39.8589C162.136 40.1947 162.228 40.6446 162.228 41.2084V45.8855H161.136V44.9242H161.08C161.006 45.0782 160.883 45.2431 160.71 45.4187C160.537 45.5943 160.307 45.7437 160.02 45.867C159.733 45.9902 159.383 46.0518 158.969 46.0518ZM159.136 45.0721C159.568 45.0721 159.932 44.9873 160.229 44.8179C160.528 44.6484 160.753 44.4297 160.904 44.1616C161.059 43.8936 161.136 43.6116 161.136 43.3159V42.3176C161.09 42.3731 160.988 42.4239 160.83 42.4701C160.676 42.5132 160.497 42.5518 160.293 42.5856C160.093 42.6165 159.897 42.6442 159.705 42.6688C159.517 42.6904 159.364 42.7089 159.247 42.7243C158.963 42.7613 158.698 42.8213 158.451 42.9045C158.207 42.9846 158.01 43.1063 157.858 43.2696C157.71 43.4299 157.636 43.6486 157.636 43.9259C157.636 44.3049 157.777 44.5914 158.057 44.7855C158.341 44.9766 158.701 45.0721 159.136 45.0721Z" fill="#696969"/>
<path d="M165.315 41.6151V45.8855H164.222V38.7867H165.278V39.8959H165.37C165.537 39.5354 165.79 39.2458 166.13 39.027C166.469 38.8052 166.907 38.6943 167.444 38.6943C167.926 38.6943 168.347 38.7928 168.708 38.99C169.069 39.1841 169.35 39.4799 169.551 39.8774C169.751 40.2718 169.852 40.7709 169.852 41.3748V45.8855H168.759V41.4487C168.759 40.8911 168.614 40.4566 168.324 40.1454C168.034 39.8312 167.636 39.674 167.13 39.674C166.781 39.674 166.469 39.7495 166.194 39.9005C165.923 40.0515 165.708 40.2718 165.551 40.5614C165.394 40.851 165.315 41.2022 165.315 41.6151Z" fill="#696969"/>
<path d="M172.297 48.5475C172.112 48.5475 171.947 48.5321 171.802 48.5013C171.657 48.4736 171.556 48.4458 171.501 48.4181L171.778 47.4568C172.044 47.5246 172.278 47.5492 172.482 47.5308C172.686 47.5123 172.866 47.4214 173.024 47.2581C173.184 47.0979 173.331 46.8375 173.464 46.477L173.667 45.9224L171.038 38.7867H172.223L174.186 44.4435H174.26L176.223 38.7867H177.408L174.389 46.9207C174.254 47.2874 174.085 47.5908 173.885 47.8312C173.684 48.0746 173.451 48.2548 173.186 48.3719C172.923 48.489 172.627 48.5475 172.297 48.5475Z" fill="#696969"/>
</svg>
