<svg width="197" height="54" viewBox="0 0 197 54" fill="none" xmlns="http://www.w3.org/2000/svg">
<path d="M46.5552 13.1676C45.8853 11.9666 45.048 11.2804 43.8758 10.5941L27.9666 1.15806C25.4547 -0.386021 22.2729 -0.386021 19.7609 1.15806L4.01922 10.5941C2.6795 11.4519 1.00486 12.8245 0.837391 14.5401C0.502462 18.6577 5.69386 21.2311 9.21062 23.1183C15.2393 26.3781 18.9236 28.2653 21.9379 31.3535C22.6078 32.0397 23.6126 33.2407 23.9475 34.0985C24.2824 33.2407 25.2872 32.0397 25.9571 31.3535C28.804 28.2653 32.6557 26.3781 38.6844 23.1183C42.0337 21.2311 47.0576 18.8292 47.0576 14.5401C47.0576 14.197 46.8901 13.5107 46.5552 13.1676ZM23.9475 24.4909C21.1006 24.4909 18.9236 22.2605 18.9236 19.3439C18.9236 16.4273 21.1006 14.197 23.9475 14.197C26.7944 14.197 28.9714 16.4273 28.9714 19.3439C28.9714 22.2605 26.7944 24.4909 23.9475 24.4909Z" fill="white"/>
<path d="M38.6843 25.6917C31.6508 29.4661 26.6269 31.3533 24.7847 37.5297C24.6173 38.2159 24.2824 39.0737 23.9474 40.6178C23.6125 39.0737 23.445 38.3875 23.1101 37.5297C21.1005 31.3533 16.2441 29.4661 9.21055 25.6917C1.84211 21.7457 0.334929 19.6869 0 18.8291V36.5003C0 39.4169 1.50718 42.1619 4.01915 43.706L19.9283 53.1421C20.4307 53.4852 21.1005 53.8283 21.6029 53.9999C21.4355 53.3136 21.1005 52.6274 20.9331 51.7695C15.9091 37.5297 7.20097 34.0984 7.20097 34.0984C7.20097 34.0984 11.2201 34.4415 17.0814 40.6178C19.9283 43.5344 22.1053 47.1373 23.9474 50.9117C23.9474 50.9117 27.7991 43.706 30.8135 40.6178C36.6747 34.4415 40.6939 34.0984 40.6939 34.0984C40.6939 34.0984 31.9857 37.5297 26.9618 51.7695C26.6269 52.6274 26.4594 53.3136 26.2919 53.9999C26.7943 53.8283 27.2967 53.4852 27.9666 53.1421L43.8757 43.706C46.3877 42.1619 47.8948 39.4169 47.8948 36.5003V19.0007C47.5599 19.8585 46.0527 21.7457 38.6843 25.6917Z" fill="white"/>
<path d="M67.9641 2.77083H73.123V29.4765H67.9641V2.77083Z" fill="white"/>
<path d="M78.1093 10.401H82.5421L82.886 12.3467C83.4974 11.66 84.2362 11.1259 85.1024 10.7444C85.994 10.3374 86.9494 10.134 87.9684 10.134C89.4715 10.134 90.7453 10.4519 91.7898 11.0877C92.8598 11.7236 93.675 12.6519 94.2354 13.8727C94.8214 15.0681 95.1144 16.556 95.1144 18.3364V29.4765H90.1848V18.985C90.1848 17.5098 89.8918 16.4034 89.3059 15.6658C88.7199 14.9283 87.841 14.5595 86.6691 14.5595C85.4718 14.5595 84.5546 14.941 83.9177 15.704C83.3063 16.4416 83.0006 17.5479 83.0006 19.0231V29.4765H78.1093V10.401Z" fill="white"/>
<path d="M102.969 23.2579C103.122 23.8937 103.377 24.377 103.733 24.7076C104.115 25.0382 104.536 25.2799 104.994 25.4325C105.478 25.5596 105.962 25.6232 106.447 25.6232C107.338 25.6232 108.039 25.4579 108.548 25.1273C109.058 24.7712 109.313 24.3261 109.313 23.792C109.313 23.3342 109.134 22.9781 108.778 22.7238C108.421 22.444 107.962 22.2278 107.402 22.0752C106.867 21.9226 106.294 21.7827 105.682 21.6555C104.994 21.4775 104.256 21.2867 103.466 21.0833C102.702 20.8544 101.976 20.5364 101.288 20.1295C100.6 19.7226 100.027 19.2012 99.5681 18.5653C99.135 17.904 98.9184 17.0774 98.9184 16.0855C98.9184 14.8901 99.2369 13.86 99.8738 12.9953C100.511 12.1051 101.402 11.4057 102.549 10.897C103.721 10.3883 105.071 10.134 106.599 10.134C108.408 10.134 109.937 10.5155 111.185 11.2785C112.433 12.0415 113.338 13.1352 113.898 14.5595L109.618 15.7803C109.465 15.4242 109.236 15.1317 108.93 14.9028C108.625 14.6739 108.255 14.5086 107.822 14.4069C107.415 14.3051 106.994 14.2543 106.561 14.2543C105.822 14.2543 105.211 14.4069 104.727 14.7121C104.243 14.9918 104.001 15.3861 104.001 15.8947C104.001 16.2 104.09 16.4543 104.268 16.6578C104.447 16.8358 104.689 16.9884 104.994 17.1156C105.326 17.2427 105.695 17.3572 106.103 17.4589C106.536 17.5607 107.007 17.6751 107.517 17.8023C108.306 18.0058 109.096 18.2474 109.886 18.5272C110.701 18.7815 111.44 19.1121 112.102 19.5191C112.79 19.926 113.338 20.4729 113.745 21.1596C114.153 21.8463 114.382 22.711 114.433 23.7538C114.433 24.8729 114.115 25.8903 113.478 26.8059C112.841 27.6961 111.924 28.4082 110.726 28.9424C109.529 29.4765 108.077 29.7435 106.37 29.7435C104.383 29.7435 102.689 29.3239 101.288 28.4845C99.912 27.6452 99.0076 26.3354 98.5745 24.555L102.969 23.2579Z" fill="white"/>
<path d="M134.965 29.4765H130.494L130.188 27.4926C129.551 28.2048 128.787 28.7643 127.895 29.1713C127.029 29.5528 126.099 29.7435 125.106 29.7435C123.628 29.7435 122.354 29.4256 121.284 28.7898C120.214 28.1539 119.386 27.2383 118.8 26.0429C118.214 24.8221 117.921 23.3215 117.921 21.5411V10.401H122.851V20.9307C122.851 22.3804 123.131 23.4868 123.692 24.2498C124.278 24.9874 125.169 25.3562 126.367 25.3562C127.564 25.3562 128.481 24.9747 129.118 24.2116C129.755 23.4486 130.073 22.3422 130.073 20.8925V10.401H134.965V29.4765Z" fill="white"/>
<path d="M139.647 10.401H144.08L144.424 12.8427C144.958 12.1814 145.557 11.6473 146.22 11.2403C146.907 10.808 147.659 10.5155 148.474 10.3629C149.289 10.1848 150.143 10.1975 151.034 10.401V14.9791C150.347 14.7502 149.621 14.6866 148.856 14.7884C148.117 14.8901 147.417 15.1572 146.755 15.5895C146.118 16.0219 145.583 16.645 145.15 17.4589C144.742 18.2474 144.538 19.252 144.538 20.4729V29.4765H139.647V10.401Z" fill="white"/>
<path d="M162.465 29.7435C160.554 29.7435 158.873 29.3239 157.421 28.4845C155.969 27.6452 154.835 26.4753 154.02 24.9747C153.23 23.4741 152.835 21.7446 152.835 19.7861C152.835 17.904 153.23 16.2381 154.02 14.7884C154.835 13.3386 155.943 12.2068 157.344 11.3929C158.745 10.5536 160.35 10.134 162.159 10.134C163.993 10.134 165.611 10.5282 167.012 11.3166C168.413 12.1051 169.496 13.2115 170.26 14.6358C171.05 16.0346 171.445 17.6751 171.445 19.5572C171.445 19.837 171.42 20.1549 171.369 20.511C171.343 20.8416 171.305 21.1977 171.254 21.5792H158.108C158.21 22.3931 158.465 23.0925 158.873 23.6775C159.306 24.2371 159.828 24.6822 160.44 25.0128C161.076 25.318 161.79 25.4706 162.579 25.4706C163.522 25.4706 164.363 25.2799 165.102 24.8984C165.866 24.5169 166.414 23.9955 166.745 23.3342L171.063 24.6313C170.299 26.2591 169.165 27.5181 167.662 28.4082C166.159 29.2984 164.426 29.7435 162.465 29.7435ZM166.095 18.0312C166.07 17.319 165.879 16.6832 165.522 16.1236C165.165 15.5387 164.694 15.0936 164.108 14.7884C163.522 14.4577 162.872 14.2924 162.159 14.2924C161.522 14.2924 160.924 14.4577 160.363 14.7884C159.803 15.0936 159.319 15.526 158.911 16.0855C158.529 16.645 158.274 17.2936 158.147 18.0312H166.095Z" fill="white"/>
<path d="M176.101 10.401V5.05988H181.031V10.401H185.273V14.7121H181.031V22.4567C181.031 23.4486 181.248 24.1481 181.681 24.555C182.114 24.9619 182.649 25.1781 183.286 25.2036C183.948 25.229 184.61 25.1908 185.273 25.0891V29.2857C184.101 29.5401 182.954 29.6164 181.834 29.5146C180.738 29.4129 179.757 29.1204 178.891 28.6371C178.025 28.1285 177.337 27.3654 176.828 26.3481C176.344 25.3307 176.101 24.0336 176.101 22.4567V14.7121H173.388V10.401H176.101Z" fill="white"/>
<path d="M189.407 10.401H194.298V29.4765H189.407V10.401ZM191.891 7.95935C190.974 7.95935 190.222 7.66686 189.636 7.08188C189.05 6.4969 188.757 5.79747 188.757 4.98358C188.757 4.14426 189.05 3.44483 189.636 2.88528C190.222 2.3003 190.974 2.00781 191.891 2.00781C192.757 2.00781 193.483 2.3003 194.069 2.88528C194.681 3.44483 194.986 4.14426 194.986 4.98358C194.986 5.79747 194.681 6.4969 194.069 7.08188C193.483 7.66686 192.757 7.95935 191.891 7.95935Z" fill="white"/>
<path d="M67.8454 39.3338V49.5561H66.6055V39.3338H67.8454Z" fill="#9A9AC1"/>
<path d="M71.3513 44.9441V49.5561H70.1714V41.8894H71.3113V43.0873H71.4113C71.5913 42.698 71.8646 42.3852 72.2312 42.149C72.5978 41.9094 73.0711 41.7896 73.6511 41.7896C74.171 41.7896 74.626 41.8961 75.016 42.109C75.4059 42.3187 75.7092 42.6381 75.9259 43.0674C76.1425 43.4933 76.2509 44.0324 76.2509 44.6846V49.5561H75.071V44.7644C75.071 44.1621 74.9143 43.6929 74.601 43.3569C74.2877 43.0175 73.8577 42.8477 73.3111 42.8477C72.9345 42.8477 72.5978 42.9293 72.3012 43.0923C72.0079 43.2554 71.7763 43.4933 71.6063 43.8061C71.4363 44.1189 71.3513 44.4982 71.3513 44.9441Z" fill="#9A9AC1"/>
<path d="M83.8464 43.6064L82.7865 43.9059C82.7199 43.7296 82.6215 43.5582 82.4915 43.3918C82.3649 43.2221 82.1916 43.0823 81.9716 42.9725C81.7516 42.8627 81.47 42.8078 81.1267 42.8078C80.6567 42.8078 80.2651 42.916 79.9518 43.1323C79.6418 43.3452 79.4868 43.6164 79.4868 43.9458C79.4868 44.2387 79.5935 44.4699 79.8068 44.6396C80.0201 44.8093 80.3534 44.9508 80.8067 45.0639L81.9466 45.3434C82.6332 45.5098 83.1448 45.7644 83.4815 46.1071C83.8181 46.4465 83.9864 46.8841 83.9864 47.4198C83.9864 47.859 83.8598 48.2517 83.6064 48.5978C83.3565 48.9438 83.0065 49.2167 82.5565 49.4163C82.1066 49.616 81.5833 49.7158 80.9867 49.7158C80.2034 49.7158 79.5551 49.5461 79.0419 49.2067C78.5286 48.8673 78.2036 48.3715 78.0669 47.7193L79.1868 47.4398C79.2935 47.8524 79.4951 48.1619 79.7918 48.3682C80.0918 48.5745 80.4834 48.6776 80.9667 48.6776C81.5166 48.6776 81.9533 48.5612 82.2766 48.3282C82.6032 48.092 82.7665 47.8091 82.7665 47.4797C82.7665 47.2135 82.6732 46.9906 82.4865 46.8109C82.2999 46.6279 82.0133 46.4914 81.6266 46.4016L80.3467 46.1021C79.6435 45.9357 79.1268 45.6778 78.7969 45.3284C78.4702 44.9757 78.3069 44.5348 78.3069 44.0057C78.3069 43.5732 78.4286 43.1905 78.6719 42.8577C78.9185 42.525 79.2535 42.2638 79.6768 42.0741C80.1034 41.8844 80.5867 41.7896 81.1267 41.7896C81.8866 41.7896 82.4832 41.956 82.9165 42.2887C83.3531 42.6215 83.6631 43.0607 83.8464 43.6064Z" fill="#9A9AC1"/>
<path d="M90.6021 46.4215V41.8894H91.782V49.5561H90.6021V48.2584H90.5221C90.3421 48.6477 90.0621 48.9788 89.6822 49.2516C89.3022 49.5212 88.8222 49.6559 88.2423 49.6559C87.7623 49.6559 87.3357 49.5511 86.9624 49.3415C86.5891 49.1285 86.2958 48.8091 86.0825 48.3831C85.8692 47.9539 85.7625 47.4132 85.7625 46.761V41.8894H86.9424V46.6811C86.9424 47.2401 87.0991 47.686 87.4124 48.0188C87.729 48.3515 88.1323 48.5179 88.6222 48.5179C88.9156 48.5179 89.2139 48.443 89.5172 48.2933C89.8238 48.1436 90.0805 47.914 90.2871 47.6045C90.4971 47.295 90.6021 46.9007 90.6021 46.4215Z" fill="#9A9AC1"/>
<path d="M93.943 49.5561V41.8894H95.0829V43.0474H95.1629C95.3029 42.6681 95.5562 42.3603 95.9228 42.124C96.2895 41.8877 96.7028 41.7696 97.1627 41.7696C97.2494 41.7696 97.3577 41.7713 97.4877 41.7746C97.6177 41.7779 97.716 41.7829 97.7827 41.7896V42.9875C97.7427 42.9775 97.651 42.9625 97.5077 42.9426C97.3677 42.9193 97.2194 42.9076 97.0627 42.9076C96.6894 42.9076 96.3561 42.9858 96.0628 43.1422C95.7729 43.2953 95.5429 43.5083 95.3729 43.7811C95.2062 44.0507 95.1229 44.3585 95.1229 44.7045V49.5561H93.943Z" fill="#9A9AC1"/>
<path d="M101.441 49.7358C100.954 49.7358 100.513 49.6443 100.116 49.4613C99.7196 49.2749 99.4046 49.0071 99.1713 48.6577C98.938 48.3049 98.8213 47.879 98.8213 47.3799C98.8213 46.9406 98.908 46.5846 99.0813 46.3117C99.2546 46.0355 99.4863 45.8193 99.7762 45.6629C100.066 45.5065 100.386 45.39 100.736 45.3135C101.089 45.2336 101.444 45.1704 101.801 45.1238C102.268 45.0639 102.646 45.019 102.936 44.989C103.229 44.9558 103.443 44.9009 103.576 44.8243C103.713 44.7478 103.781 44.6147 103.781 44.425V44.3851C103.781 43.8926 103.646 43.5099 103.376 43.2371C103.109 42.9642 102.704 42.8278 102.161 42.8278C101.598 42.8278 101.156 42.9509 100.836 43.1971C100.516 43.4434 100.291 43.7063 100.161 43.9858L99.0413 43.5865C99.2413 43.1206 99.5079 42.7579 99.8412 42.4984C100.178 42.2355 100.545 42.0525 100.941 41.9493C101.341 41.8428 101.734 41.7896 102.121 41.7896C102.368 41.7896 102.651 41.8195 102.971 41.8794C103.294 41.936 103.606 42.0541 103.906 42.2338C104.209 42.4135 104.461 42.6847 104.661 43.0474C104.861 43.4101 104.961 43.8959 104.961 44.5049V49.5561H103.781V48.5179H103.721C103.641 48.6843 103.508 48.8623 103.321 49.052C103.134 49.2416 102.886 49.403 102.576 49.5361C102.266 49.6692 101.888 49.7358 101.441 49.7358ZM101.621 48.6776C102.088 48.6776 102.481 48.5861 102.801 48.4031C103.124 48.2201 103.368 47.9838 103.531 47.6943C103.698 47.4048 103.781 47.1004 103.781 46.7809V45.7028C103.731 45.7627 103.621 45.8176 103.451 45.8675C103.284 45.9141 103.091 45.9557 102.871 45.9923C102.654 46.0256 102.443 46.0555 102.236 46.0821C102.033 46.1054 101.868 46.1254 101.741 46.142C101.434 46.182 101.148 46.2468 100.881 46.3367C100.618 46.4232 100.405 46.5546 100.241 46.731C100.081 46.904 100.001 47.1403 100.001 47.4398C100.001 47.8491 100.153 48.1585 100.456 48.3682C100.763 48.5745 101.151 48.6776 101.621 48.6776Z" fill="#9A9AC1"/>
<path d="M108.294 44.9441V49.5561H107.114V41.8894H108.254V43.0873H108.354C108.534 42.698 108.808 42.3852 109.174 42.149C109.541 41.9094 110.014 41.7896 110.594 41.7896C111.114 41.7896 111.569 41.8961 111.959 42.109C112.349 42.3187 112.652 42.6381 112.869 43.0674C113.085 43.4933 113.194 44.0324 113.194 44.6846V49.5561H112.014V44.7644C112.014 44.1621 111.857 43.6929 111.544 43.3569C111.231 43.0175 110.801 42.8477 110.254 42.8477C109.877 42.8477 109.541 42.9293 109.244 43.0923C108.951 43.2554 108.719 43.4933 108.549 43.8061C108.379 44.1189 108.294 44.4982 108.294 44.9441Z" fill="#9A9AC1"/>
<path d="M118.47 49.7158C117.75 49.7158 117.13 49.5461 116.61 49.2067C116.09 48.8673 115.69 48.3998 115.41 47.8041C115.13 47.2085 114.99 46.528 114.99 45.7627C114.99 44.984 115.133 44.2969 115.42 43.7013C115.71 43.1023 116.113 42.6348 116.63 42.2987C117.15 41.9593 117.756 41.7896 118.45 41.7896C118.99 41.7896 119.476 41.8894 119.909 42.0891C120.343 42.2887 120.698 42.5682 120.974 42.9276C121.251 43.287 121.423 43.7063 121.489 44.1854H120.309C120.219 43.836 120.019 43.5266 119.709 43.257C119.403 42.9842 118.99 42.8477 118.47 42.8477C118.01 42.8477 117.606 42.9675 117.26 43.2071C116.916 43.4434 116.648 43.7778 116.455 44.2104C116.265 44.6396 116.17 45.1438 116.17 45.7228C116.17 46.3151 116.263 46.8308 116.45 47.2701C116.64 47.7093 116.906 48.0504 117.25 48.2933C117.596 48.5362 118.003 48.6577 118.47 48.6577C118.776 48.6577 119.055 48.6044 119.305 48.4979C119.554 48.3915 119.766 48.2384 119.939 48.0387C120.113 47.8391 120.236 47.5995 120.309 47.32H121.489C121.423 47.7725 121.258 48.1802 120.994 48.5429C120.734 48.9022 120.389 49.1884 119.959 49.4014C119.533 49.611 119.036 49.7158 118.47 49.7158Z" fill="#9A9AC1"/>
<path d="M126.434 49.7158C125.694 49.7158 125.056 49.5528 124.519 49.2267C123.986 48.8972 123.574 48.438 123.284 47.8491C122.998 47.2568 122.854 46.568 122.854 45.7827C122.854 44.9974 122.998 44.3052 123.284 43.7063C123.574 43.104 123.977 42.6348 124.494 42.2987C125.014 41.9593 125.621 41.7896 126.314 41.7896C126.714 41.7896 127.109 41.8561 127.499 41.9892C127.889 42.1223 128.244 42.3386 128.564 42.6381C128.884 42.9343 129.139 43.3269 129.329 43.8161C129.519 44.3052 129.614 44.9075 129.614 45.6229V46.1221H123.694V45.1038H128.414C128.414 44.6713 128.327 44.2853 128.154 43.9458C127.984 43.6064 127.74 43.3386 127.424 43.1422C127.11 42.9459 126.741 42.8477 126.314 42.8477C125.844 42.8477 125.437 42.9642 125.094 43.1971C124.754 43.4267 124.492 43.7262 124.309 44.0956C124.126 44.4649 124.034 44.8609 124.034 45.2835V45.9623C124.034 46.5413 124.134 47.0322 124.334 47.4348C124.537 47.8341 124.819 48.1386 125.179 48.3482C125.539 48.5545 125.957 48.6577 126.434 48.6577C126.744 48.6577 127.024 48.6144 127.274 48.5279C127.527 48.438 127.745 48.3049 127.929 48.1286C128.112 47.9489 128.254 47.7259 128.354 47.4597L129.494 47.7792C129.374 48.1652 129.172 48.5046 128.889 48.7974C128.605 49.0869 128.255 49.3132 127.839 49.4762C127.422 49.636 126.954 49.7158 126.434 49.7158Z" fill="#9A9AC1"/>
<path d="M143.767 42.5283H142.527C142.454 42.1723 142.326 41.8595 142.142 41.5899C141.962 41.3204 141.742 41.0941 141.483 40.9111C141.226 40.7248 140.941 40.585 140.628 40.4918C140.314 40.3987 139.988 40.3521 139.648 40.3521C139.028 40.3521 138.466 40.5085 137.963 40.8213C137.463 41.1341 137.065 41.5949 136.768 42.2039C136.475 42.8128 136.328 43.5598 136.328 44.445C136.328 45.3301 136.475 46.0771 136.768 46.6861C137.065 47.295 137.463 47.7559 137.963 48.0687C138.466 48.3815 139.028 48.5379 139.648 48.5379C139.988 48.5379 140.314 48.4913 140.628 48.3981C140.941 48.3049 141.226 48.1668 141.483 47.9838C141.742 47.7975 141.962 47.5696 142.142 47.3C142.326 47.0272 142.454 46.7144 142.527 46.3616H143.767C143.674 46.8841 143.504 47.3516 143.257 47.7642C143.011 48.1768 142.704 48.5279 142.337 48.8174C141.971 49.1036 141.559 49.3215 141.103 49.4712C140.649 49.621 140.164 49.6959 139.648 49.6959C138.774 49.6959 137.998 49.4829 137.318 49.057C136.638 48.631 136.103 48.0254 135.713 47.2401C135.323 46.4548 135.128 45.5231 135.128 44.445C135.128 43.3668 135.323 42.4351 135.713 41.6498C136.103 40.8645 136.638 40.2589 137.318 39.833C137.998 39.4071 138.774 39.1941 139.648 39.1941C140.164 39.1941 140.649 39.269 141.103 39.4187C141.559 39.5684 141.971 39.7881 142.337 40.0776C142.704 40.3637 143.011 40.7131 143.257 41.1257C143.504 41.535 143.674 42.0025 143.767 42.5283Z" fill="#9A9AC1"/>
<path d="M148.731 49.7158C148.037 49.7158 147.429 49.5511 146.906 49.2217C146.386 48.8923 145.979 48.4314 145.686 47.8391C145.396 47.2468 145.251 46.5546 145.251 45.7627C145.251 44.9641 145.396 44.267 145.686 43.6713C145.979 43.0757 146.386 42.6132 146.906 42.2837C147.429 41.9543 148.037 41.7896 148.731 41.7896C149.424 41.7896 150.031 41.9543 150.55 42.2837C151.074 42.6132 151.48 43.0757 151.77 43.6713C152.064 44.267 152.21 44.9641 152.21 45.7627C152.21 46.5546 152.064 47.2468 151.77 47.8391C151.48 48.4314 151.074 48.8923 150.55 49.2217C150.031 49.5511 149.424 49.7158 148.731 49.7158ZM148.731 48.6577C149.257 48.6577 149.691 48.5229 150.031 48.2534C150.37 47.9838 150.622 47.6294 150.785 47.1902C150.949 46.751 151.03 46.2751 151.03 45.7627C151.03 45.2502 150.949 44.7727 150.785 44.3302C150.622 43.8876 150.37 43.5299 150.031 43.257C149.691 42.9842 149.257 42.8477 148.731 42.8477C148.204 42.8477 147.771 42.9842 147.431 43.257C147.091 43.5299 146.839 43.8876 146.676 44.3302C146.512 44.7727 146.431 45.2502 146.431 45.7627C146.431 46.2751 146.512 46.751 146.676 47.1902C146.839 47.6294 147.091 47.9838 147.431 48.2534C147.771 48.5229 148.204 48.6577 148.731 48.6577Z" fill="#9A9AC1"/>
<path d="M154.011 49.5561V41.8894H155.151V43.0873H155.251C155.411 42.678 155.67 42.3603 156.026 42.134C156.383 41.9044 156.811 41.7896 157.311 41.7896C157.818 41.7896 158.239 41.9044 158.576 42.134C158.916 42.3603 159.181 42.678 159.371 43.0873H159.451C159.648 42.6914 159.943 42.3769 160.336 42.144C160.729 41.9077 161.201 41.7896 161.751 41.7896C162.437 41.7896 162.999 42.0042 163.436 42.4335C163.872 42.8594 164.09 43.5232 164.09 44.425V49.5561H162.911V44.425C162.911 43.8593 162.756 43.455 162.446 43.2121C162.136 42.9692 161.771 42.8477 161.351 42.8477C160.811 42.8477 160.392 43.0108 160.096 43.3369C159.799 43.6597 159.651 44.069 159.651 44.5648V49.5561H158.451V44.3052C158.451 43.8693 158.309 43.5183 158.026 43.252C157.743 42.9825 157.378 42.8477 156.931 42.8477C156.624 42.8477 156.338 42.9293 156.071 43.0923C155.808 43.2554 155.595 43.4816 155.431 43.7711C155.271 44.0573 155.191 44.3884 155.191 44.7644V49.5561H154.011Z" fill="#9A9AC1"/>
<path d="M166.248 52.4311V41.8894H167.388V43.1073H167.528C167.614 42.9742 167.734 42.8045 167.888 42.5982C168.044 42.3885 168.268 42.2022 168.558 42.0392C168.851 41.8728 169.248 41.7896 169.747 41.7896C170.394 41.7896 170.964 41.951 171.457 42.2737C171.951 42.5965 172.336 43.0541 172.612 43.6464C172.889 44.2387 173.027 44.9375 173.027 45.7427C173.027 46.5546 172.889 47.2584 172.612 47.8541C172.336 48.4464 171.952 48.9056 171.462 49.2317C170.972 49.5544 170.407 49.7158 169.767 49.7158C169.274 49.7158 168.879 49.6343 168.583 49.4712C168.286 49.3049 168.058 49.1169 167.898 48.9072C167.738 48.6943 167.614 48.5179 167.528 48.3781H167.428V52.4311H166.248ZM167.408 45.7228C167.408 46.3018 167.493 46.8125 167.663 47.2551C167.833 47.6943 168.081 48.0387 168.408 48.2883C168.734 48.5345 169.134 48.6577 169.607 48.6577C170.101 48.6577 170.512 48.5279 170.842 48.2683C171.176 48.0055 171.426 47.6527 171.592 47.2102C171.762 46.7643 171.847 46.2685 171.847 45.7228C171.847 45.1837 171.764 44.6979 171.597 44.2653C171.434 43.8294 171.186 43.485 170.852 43.2321C170.522 42.9759 170.107 42.8477 169.607 42.8477C169.128 42.8477 168.724 42.9692 168.398 43.2121C168.071 43.4517 167.824 43.7878 167.658 44.2204C167.491 44.6496 167.408 45.1504 167.408 45.7228Z" fill="#9A9AC1"/>
<path d="M177.087 49.7358C176.6 49.7358 176.159 49.6443 175.762 49.4613C175.365 49.2749 175.05 49.0071 174.817 48.6577C174.584 48.3049 174.467 47.879 174.467 47.3799C174.467 46.9406 174.554 46.5846 174.727 46.3117C174.9 46.0355 175.132 45.8193 175.422 45.6629C175.712 45.5065 176.032 45.39 176.382 45.3135C176.735 45.2336 177.09 45.1704 177.447 45.1238C177.913 45.0639 178.292 45.019 178.582 44.989C178.875 44.9558 179.088 44.9009 179.222 44.8243C179.358 44.7478 179.427 44.6147 179.427 44.425V44.3851C179.427 43.8926 179.292 43.5099 179.022 43.2371C178.755 42.9642 178.35 42.8278 177.807 42.8278C177.243 42.8278 176.802 42.9509 176.482 43.1971C176.162 43.4434 175.937 43.7063 175.807 43.9858L174.687 43.5865C174.887 43.1206 175.154 42.7579 175.487 42.4984C175.824 42.2355 176.19 42.0525 176.587 41.9493C176.987 41.8428 177.38 41.7896 177.767 41.7896C178.013 41.7896 178.297 41.8195 178.617 41.8794C178.94 41.936 179.252 42.0541 179.552 42.2338C179.855 42.4135 180.107 42.6847 180.307 43.0474C180.507 43.4101 180.607 43.8959 180.607 44.5049V49.5561H179.427V48.5179H179.367C179.287 48.6843 179.153 48.8623 178.967 49.052C178.78 49.2416 178.532 49.403 178.222 49.5361C177.912 49.6692 177.533 49.7358 177.087 49.7358ZM177.267 48.6776C177.733 48.6776 178.127 48.5861 178.447 48.4031C178.77 48.2201 179.013 47.9838 179.177 47.6943C179.343 47.4048 179.427 47.1004 179.427 46.7809V45.7028C179.377 45.7627 179.267 45.8176 179.097 45.8675C178.93 45.9141 178.737 45.9557 178.517 45.9923C178.3 46.0256 178.088 46.0555 177.882 46.0821C177.678 46.1054 177.513 46.1254 177.387 46.142C177.08 46.182 176.794 46.2468 176.527 46.3367C176.264 46.4232 176.05 46.5546 175.887 46.731C175.727 46.904 175.647 47.1403 175.647 47.4398C175.647 47.8491 175.799 48.1585 176.102 48.3682C176.409 48.5745 176.797 48.6776 177.267 48.6776Z" fill="#9A9AC1"/>
<path d="M183.94 44.9441V49.5561H182.76V41.8894H183.9V43.0873H184C184.18 42.698 184.453 42.3852 184.82 42.149C185.187 41.9094 185.66 41.7896 186.24 41.7896C186.76 41.7896 187.215 41.8961 187.605 42.109C187.995 42.3187 188.298 42.6381 188.515 43.0674C188.731 43.4933 188.84 44.0324 188.84 44.6846V49.5561H187.66V44.7644C187.66 44.1621 187.503 43.6929 187.19 43.3569C186.876 43.0175 186.446 42.8477 185.9 42.8477C185.523 42.8477 185.187 42.9293 184.89 43.0923C184.597 43.2554 184.365 43.4933 184.195 43.8061C184.025 44.1189 183.94 44.4982 183.94 44.9441Z" fill="#9A9AC1"/>
<path d="M191.481 52.4311C191.281 52.4311 191.102 52.4145 190.946 52.3812C190.789 52.3513 190.681 52.3213 190.621 52.2914L190.921 51.2532C191.207 51.3264 191.461 51.353 191.681 51.333C191.901 51.3131 192.095 51.2149 192.265 51.0385C192.439 50.8655 192.597 50.5843 192.74 50.195L192.96 49.596L190.121 41.8894H191.401L193.52 47.9988H193.6L195.72 41.8894H197L193.74 50.6742C193.594 51.0701 193.412 51.3979 193.195 51.6575C192.979 51.9203 192.727 52.115 192.44 52.2414C192.157 52.3679 191.837 52.4311 191.481 52.4311Z" fill="#9A9AC1"/>
</svg>
